M48
; DRILL file {KiCad (5.1.4)-1} date 15.10.2019 20.24.13
; FORMAT={-:-/ absolute / inch / decimal}
; #@! TF.CreationDate,2019-10-15T20:24:13+02:00
; #@! TF.GenerationSoftware,Kicad,Pcbnew,(5.1.4)-1
FMAT,2
INCH
T1C0.0157
T2C0.0315
T3C0.0394
T4C0.0472
T5C0.1201
%
G90
G05
T1
X3.5669Y-4.2915
X3.5813Y-4.1417
X3.6Y-5.2835
X3.7024Y-5.2402
X3.7614Y-3.9291
X3.8402Y-3.7598
X3.852Y-4.1181
X3.8638Y-4.1693
X3.911Y-3.7835
X3.9661Y-3.0669
X3.978Y-3.622
X3.9819Y-3.7244
X4.0252Y-3.9409
X4.0291Y-4.1939
X4.0554Y-3.9157
X4.0685Y-4.1467
X4.0843Y-3.8858
X4.1276Y-3.3937
X4.1276Y-4.1929
X4.1315Y-3.8543
X4.1452Y-3.9744
X4.2339Y-3.7402
X4.2772Y-3.0778
X4.285Y-3.252
X4.3276Y-4.0031
X4.3874Y-4.2047
X4.4386Y-3.378
X4.6866Y-5.2205
X4.7969Y-3.0778
X4.8244Y-3.1427
X4.8717Y-3.0748
X4.9031Y-3.2904
X4.9031Y-3.4617
X4.9031Y-3.5522
X4.9031Y-3.6378
X4.915Y-5.2402
X4.915Y-5.3189
X4.9336Y-4.1318
X4.9386Y-4.1772
X4.9661Y-4.5945
X4.978Y-5.0551
X5.0252Y-4.0079
X5.0533Y-4.0861
X5.0606Y-3.811
X5.0926Y-4.1427
X5.537Y-3.5591
X5.6423Y-3.5827
X5.6423Y-3.6535
X5.67Y-4.6527
X5.7496Y-3.622
X5.7575Y-3.6614
X5.77Y-3.5793
X5.793Y-3.5473
X5.8283Y-3.622
X5.8677Y-3.6772
X5.8756Y-3.9469
X5.8756Y-4.0079
X5.9228Y-4.4252
X5.9425Y-3.5896
X5.9427Y-3.5503
X5.9504Y-3.3853
X6.0016Y-4.4528
X6.0016Y-4.5827
X6.0252Y-3.5118
X6.0252Y-3.5591
X6.0252Y-3.4575
X6.0331Y-3.3858
X6.0369Y-4.4251
X6.0488Y-5.0984
X6.0646Y-3.6772
X6.0803Y-5.0276
X6.085Y-3.0807
X6.0911Y-4.9803
X6.0951Y-4.5236
X6.1039Y-4.4803
X6.1241Y-3.0763
X6.1591Y-3.0945
X6.1748Y-4.4331
X6.2142Y-5.0394
X6.222Y-4.9961
X6.3996Y-3.413
X6.449Y-3.3844
X6.4976Y-4.1969
X6.5016Y-4.1496
X6.5055Y-4.1102
X6.5272Y-4.0709
X6.5841Y-4.2008
X6.5843Y-4.0669
X6.5843Y-4.1063
X6.5843Y-4.1496
X6.6079Y-4.6929
X6.6787Y-5.0906
X6.9465Y-4.7047
X7.2535Y-4.9134
X7.2772Y-3.3238
X7.2772Y-3.8031
X7.415Y-3.5827
X7.9425Y-5.1614
T2
X5.0Y-3.75
X5.0Y-4.35
X5.1Y-3.75
X5.1Y-4.35
X5.2Y-3.75
X5.2Y-4.35
X5.3Y-3.75
X5.3Y-4.35
X5.4Y-3.75
X5.4Y-4.35
X5.5Y-3.75
X5.5Y-4.35
X5.6Y-3.75
X5.6Y-4.35
X5.7Y-3.75
X5.7Y-4.35
X5.8Y-3.75
X5.8Y-4.35
X5.9Y-3.75
X5.9Y-4.35
X6.0Y-3.75
X6.0Y-4.35
X6.1Y-3.75
X6.1Y-4.35
X6.2Y-3.75
X6.2Y-4.35
X6.3Y-3.75
X6.3Y-4.35
X6.4Y-3.75
X6.4Y-4.35
X6.5Y-3.75
X6.5Y-4.35
X6.6Y-3.75
X6.6Y-4.35
X6.7Y-3.75
X6.7Y-4.35
X6.8Y-3.75
X6.8Y-4.35
X6.9Y-3.75
X6.9Y-4.35
X5.0331Y-3.1843
X5.0331Y-3.4843
X5.1331Y-3.1843
X5.1331Y-3.4843
X5.2331Y-3.1843
X5.2331Y-3.4843
X5.3331Y-3.1843
X5.3331Y-3.4843
X5.4331Y-3.1843
X5.4331Y-3.4843
X5.5331Y-3.1843
X5.5331Y-3.4843
X5.6331Y-3.1843
X5.6331Y-3.4843
X5.7331Y-3.1843
X5.7331Y-3.4843
X5.8331Y-3.1843
X5.8331Y-3.4843
X5.9331Y-3.1843
X5.9331Y-3.4843
X6.226Y-4.9283
X6.226Y-5.2283
X6.326Y-4.9283
X6.326Y-5.2283
X6.426Y-4.9283
X6.426Y-5.2283
X6.526Y-4.9283
X6.526Y-5.2283
X6.626Y-4.9283
X6.626Y-5.2283
X6.726Y-4.9283
X6.726Y-5.2283
X6.826Y-4.9283
X6.826Y-5.2283
X6.926Y-4.9283
X6.926Y-5.2283
X7.026Y-4.9283
X7.026Y-5.2283
X7.126Y-4.9283
X7.126Y-5.2283
X3.8244Y-3.1764
X3.8244Y-3.4764
X3.9244Y-3.1764
X3.9244Y-3.4764
X4.0244Y-3.1764
X4.0244Y-3.4764
X4.1244Y-3.1764
X4.1244Y-3.4764
X4.2244Y-3.1764
X4.2244Y-3.4764
X4.3244Y-3.1764
X4.3244Y-3.4764
X4.4244Y-3.1764
X4.4244Y-3.4764
X4.5244Y-3.1764
X4.5244Y-3.4764
X4.6244Y-3.1764
X4.6244Y-3.4764
X4.7244Y-3.1764
X4.7244Y-3.4764
X6.1661Y-3.1732
X6.1661Y-3.4732
X6.2661Y-3.1732
X6.2661Y-3.4732
X6.3661Y-3.1732
X6.3661Y-3.4732
X6.4661Y-3.1732
X6.4661Y-3.4732
X6.5661Y-3.1732
X6.5661Y-3.4732
X6.6661Y-3.1732
X6.6661Y-3.4732
X6.7661Y-3.1732
X6.7661Y-3.4732
X6.8661Y-3.1732
X6.8661Y-3.4732
X6.9661Y-3.1732
X6.9661Y-3.4732
X7.0661Y-3.1732
X7.0661Y-3.4732
X7.1661Y-3.1732
X7.1661Y-3.4732
X7.2661Y-3.1732
X7.2661Y-3.4732
X7.3661Y-3.1732
X7.3661Y-3.4732
X7.4661Y-3.1732
X7.4661Y-3.4732
X5.1394Y-4.7236
X5.1394Y-5.0236
X5.2394Y-4.7236
X5.2394Y-5.0236
X5.3394Y-4.7236
X5.3394Y-5.0236
X5.4394Y-4.7236
X5.4394Y-5.0236
X5.5394Y-4.7236
X5.5394Y-5.0236
X5.6394Y-4.7236
X5.6394Y-5.0236
X5.7394Y-4.7236
X5.7394Y-5.0236
X5.8394Y-4.7236
X5.8394Y-5.0236
X5.9394Y-4.7236
X5.9394Y-5.0236
X7.0882Y-3.7126
X7.0882Y-3.8126
X7.0882Y-3.9126
X7.0882Y-4.0126
X7.0882Y-4.1126
X7.0882Y-4.2126
X7.0882Y-4.3126
X7.0882Y-4.4126
X7.0882Y-4.5126
X7.0882Y-4.6126
X7.3882Y-3.7126
X7.3882Y-3.8126
X7.3882Y-3.9126
X7.3882Y-4.0126
X7.3882Y-4.1126
X7.3882Y-4.2126
X7.3882Y-4.3126
X7.3882Y-4.4126
X7.3882Y-4.5126
X7.3882Y-4.6126
X7.3638Y-4.9291
X7.3638Y-5.2291
X7.4638Y-4.9291
X7.4638Y-5.2291
X7.5638Y-4.9291
X7.5638Y-5.2291
X7.6638Y-4.9291
X7.6638Y-5.2291
T3
X4.0685Y-4.3031
X7.9646Y-3.1724
X7.9646Y-3.2724
X7.9646Y-3.3724
X7.9646Y-3.4724
X8.0646Y-3.1724
X8.0646Y-3.2724
X8.0646Y-3.3724
X8.0646Y-3.4724
X8.0606Y-4.9606
X8.0606Y-5.0606
X7.552Y-4.0219
X7.552Y-4.1309
X7.552Y-4.24
X7.552Y-4.349
X7.552Y-4.4581
X7.6638Y-4.0764
X7.6638Y-4.1854
X7.6638Y-4.2945
X7.6638Y-4.4035
X3.8008Y-5.085
X3.8008Y-5.185
X3.9008Y-5.085
X3.9008Y-5.185
X4.0008Y-5.085
X4.0008Y-5.185
X4.1008Y-5.085
X4.1008Y-5.185
X3.6197Y-3.1024
X3.6197Y-3.2024
X3.6197Y-3.3024
X3.6197Y-3.4024
X3.6197Y-3.5024
X3.6197Y-3.6024
X3.6197Y-3.7024
X3.6197Y-3.8024
X3.6197Y-3.9024
X3.6236Y-4.085
X3.6236Y-4.185
X3.6236Y-4.285
X3.6236Y-4.385
X3.6236Y-4.485
X3.6236Y-4.585
X3.6236Y-4.685
X3.6236Y-4.785
X3.6236Y-4.885
X3.6236Y-4.985
X3.6236Y-5.085
X3.6236Y-5.185
T4
X4.5213Y-3.8031
X4.7299Y-3.8031
T5
X7.6079Y-3.748
X7.6079Y-4.7319
T3
G00X4.411Y-4.7047
M15
G01X4.4898Y-4.7047
M16
G05
G00X4.411Y-4.9409
M15
G01X4.4898Y-4.9409
M16
G05
G00X4.6354Y-4.8622
M15
G01X4.6354Y-4.7835
M16
G05
T0
M30
