G04 #@! TF.GenerationSoftware,KiCad,Pcbnew,(5.1.4)-1*
G04 #@! TF.CreationDate,2019-10-15T20:24:08+02:00*
G04 #@! TF.ProjectId,byggern,62796767-6572-46e2-9e6b-696361645f70,rev?*
G04 #@! TF.SameCoordinates,Original*
G04 #@! TF.FileFunction,Copper,L1,Top*
G04 #@! TF.FilePolarity,Positive*
%FSLAX46Y46*%
G04 Gerber Fmt 4.6, Leading zero omitted, Abs format (unit mm)*
G04 Created by KiCad (PCBNEW (5.1.4)-1) date 2019-10-15 20:24:08*
%MOMM*%
%LPD*%
G04 APERTURE LIST*
%ADD10C,1.500000*%
%ADD11C,3.500000*%
%ADD12C,2.000000*%
%ADD13O,1.700000X1.700000*%
%ADD14R,1.700000X1.700000*%
%ADD15R,7.875000X2.000000*%
%ADD16O,1.600000X1.600000*%
%ADD17R,1.600000X1.600000*%
%ADD18R,5.250000X6.840000*%
%ADD19R,1.050000X2.790000*%
%ADD20C,0.150000*%
%ADD21C,3.000000*%
%ADD22R,3.500000X3.500000*%
%ADD23C,2.200000*%
%ADD24R,2.200000X2.200000*%
%ADD25C,1.150000*%
%ADD26C,1.000000*%
%ADD27C,0.800000*%
%ADD28C,0.500000*%
%ADD29C,0.250000*%
G04 APERTURE END LIST*
D10*
X99640000Y-92000000D03*
X194040000Y-81400000D03*
X154240000Y-92000000D03*
X146840000Y-117000000D03*
X150240000Y-117000000D03*
X141240000Y-113800000D03*
X150240000Y-114200000D03*
X146840000Y-114200000D03*
X141240000Y-117000000D03*
X136840000Y-115400000D03*
X108240000Y-110400000D03*
X149840000Y-92000000D03*
D11*
X193240000Y-95200000D03*
X193240000Y-120190000D03*
D12*
X191820000Y-113235000D03*
X194660000Y-111850000D03*
X191820000Y-110465000D03*
X194660000Y-109080000D03*
X191820000Y-107695000D03*
X194660000Y-106310000D03*
X191820000Y-104925000D03*
X194660000Y-103540000D03*
X191820000Y-102155000D03*
D13*
X202300000Y-80580000D03*
X204840000Y-80580000D03*
X202300000Y-83120000D03*
X204840000Y-83120000D03*
X202300000Y-85660000D03*
X204840000Y-85660000D03*
X202300000Y-88200000D03*
D14*
X204840000Y-88200000D03*
D15*
X133940000Y-132300000D03*
X145815000Y-132300000D03*
X160665000Y-115300000D03*
X172540000Y-115300000D03*
D16*
X181000000Y-132800000D03*
X158140000Y-125180000D03*
X178460000Y-132800000D03*
X160680000Y-125180000D03*
X175920000Y-132800000D03*
X163220000Y-125180000D03*
X173380000Y-132800000D03*
X165760000Y-125180000D03*
X170840000Y-132800000D03*
X168300000Y-125180000D03*
X168300000Y-132800000D03*
X170840000Y-125180000D03*
X165760000Y-132800000D03*
X173380000Y-125180000D03*
X163220000Y-132800000D03*
X175920000Y-125180000D03*
X160680000Y-132800000D03*
X178460000Y-125180000D03*
X158140000Y-132800000D03*
D17*
X181000000Y-125180000D03*
D16*
X97140000Y-80680000D03*
X120000000Y-88300000D03*
X99680000Y-80680000D03*
X117460000Y-88300000D03*
X102220000Y-80680000D03*
X114920000Y-88300000D03*
X104760000Y-80680000D03*
X112380000Y-88300000D03*
X107300000Y-80680000D03*
X109840000Y-88300000D03*
X109840000Y-80680000D03*
X107300000Y-88300000D03*
X112380000Y-80680000D03*
X104760000Y-88300000D03*
X114920000Y-80680000D03*
X102220000Y-88300000D03*
X117460000Y-80680000D03*
X99680000Y-88300000D03*
X120000000Y-80680000D03*
D17*
X97140000Y-88300000D03*
D16*
X189640000Y-88220000D03*
X156620000Y-80600000D03*
X187100000Y-88220000D03*
X159160000Y-80600000D03*
X184560000Y-88220000D03*
X161700000Y-80600000D03*
X182020000Y-88220000D03*
X164240000Y-80600000D03*
X179480000Y-88220000D03*
X166780000Y-80600000D03*
X176940000Y-88220000D03*
X169320000Y-80600000D03*
X174400000Y-88220000D03*
X171860000Y-80600000D03*
X171860000Y-88220000D03*
X174400000Y-80600000D03*
X169320000Y-88220000D03*
X176940000Y-80600000D03*
X166780000Y-88220000D03*
X179480000Y-80600000D03*
X164240000Y-88220000D03*
X182020000Y-80600000D03*
X161700000Y-88220000D03*
X184560000Y-80600000D03*
X159160000Y-88220000D03*
X187100000Y-80600000D03*
X156620000Y-88220000D03*
D17*
X189640000Y-80600000D03*
D16*
X187040000Y-125200000D03*
X194660000Y-132820000D03*
X189580000Y-125200000D03*
X192120000Y-132820000D03*
X192120000Y-125200000D03*
X189580000Y-132820000D03*
X194660000Y-125200000D03*
D17*
X187040000Y-132820000D03*
D16*
X127840000Y-80880000D03*
X150700000Y-88500000D03*
X130380000Y-80880000D03*
X148160000Y-88500000D03*
X132920000Y-80880000D03*
X145620000Y-88500000D03*
X135460000Y-80880000D03*
X143080000Y-88500000D03*
X138000000Y-80880000D03*
X140540000Y-88500000D03*
X140540000Y-80880000D03*
X138000000Y-88500000D03*
X143080000Y-80880000D03*
X135460000Y-88500000D03*
X145620000Y-80880000D03*
X132920000Y-88500000D03*
X148160000Y-80880000D03*
X130380000Y-88500000D03*
X150700000Y-80880000D03*
D17*
X127840000Y-88500000D03*
D16*
X130540000Y-119980000D03*
X150860000Y-127600000D03*
X133080000Y-119980000D03*
X148320000Y-127600000D03*
X135620000Y-119980000D03*
X145780000Y-127600000D03*
X138160000Y-119980000D03*
X143240000Y-127600000D03*
X140700000Y-119980000D03*
X140700000Y-127600000D03*
X143240000Y-119980000D03*
X138160000Y-127600000D03*
X145780000Y-119980000D03*
X135620000Y-127600000D03*
X148320000Y-119980000D03*
X133080000Y-127600000D03*
X150860000Y-119980000D03*
D17*
X130540000Y-127600000D03*
D16*
X187660000Y-94300000D03*
X180040000Y-117160000D03*
X187660000Y-96840000D03*
X180040000Y-114620000D03*
X187660000Y-99380000D03*
X180040000Y-112080000D03*
X187660000Y-101920000D03*
X180040000Y-109540000D03*
X187660000Y-104460000D03*
X180040000Y-107000000D03*
X187660000Y-107000000D03*
X180040000Y-104460000D03*
X187660000Y-109540000D03*
X180040000Y-101920000D03*
X187660000Y-112080000D03*
X180040000Y-99380000D03*
X187660000Y-114620000D03*
X180040000Y-96840000D03*
X187660000Y-117160000D03*
D17*
X180040000Y-94300000D03*
D16*
X127000000Y-95250000D03*
X175260000Y-110490000D03*
X129540000Y-95250000D03*
X172720000Y-110490000D03*
X132080000Y-95250000D03*
X170180000Y-110490000D03*
X134620000Y-95250000D03*
X167640000Y-110490000D03*
X137160000Y-95250000D03*
X165100000Y-110490000D03*
X139700000Y-95250000D03*
X162560000Y-110490000D03*
X142240000Y-95250000D03*
X160020000Y-110490000D03*
X144780000Y-95250000D03*
X157480000Y-110490000D03*
X147320000Y-95250000D03*
X154940000Y-110490000D03*
X149860000Y-95250000D03*
X152400000Y-110490000D03*
X152400000Y-95250000D03*
X149860000Y-110490000D03*
X154940000Y-95250000D03*
X147320000Y-110490000D03*
X157480000Y-95250000D03*
X144780000Y-110490000D03*
X160020000Y-95250000D03*
X142240000Y-110490000D03*
X162560000Y-95250000D03*
X139700000Y-110490000D03*
X165100000Y-95250000D03*
X137160000Y-110490000D03*
X167640000Y-95250000D03*
X134620000Y-110490000D03*
X170180000Y-95250000D03*
X132080000Y-110490000D03*
X172720000Y-95250000D03*
X129540000Y-110490000D03*
X175260000Y-95250000D03*
D17*
X127000000Y-110490000D03*
D18*
X100640000Y-123160000D03*
D19*
X98100000Y-112810000D03*
X100640000Y-112810000D03*
X103180000Y-112810000D03*
D20*
G36*
X118700765Y-120754213D02*
G01*
X118785704Y-120766813D01*
X118868999Y-120787677D01*
X118949848Y-120816605D01*
X119027472Y-120853319D01*
X119101124Y-120897464D01*
X119170094Y-120948616D01*
X119233718Y-121006282D01*
X119291384Y-121069906D01*
X119342536Y-121138876D01*
X119386681Y-121212528D01*
X119423395Y-121290152D01*
X119452323Y-121371001D01*
X119473187Y-121454296D01*
X119485787Y-121539235D01*
X119490000Y-121625000D01*
X119490000Y-123375000D01*
X119485787Y-123460765D01*
X119473187Y-123545704D01*
X119452323Y-123628999D01*
X119423395Y-123709848D01*
X119386681Y-123787472D01*
X119342536Y-123861124D01*
X119291384Y-123930094D01*
X119233718Y-123993718D01*
X119170094Y-124051384D01*
X119101124Y-124102536D01*
X119027472Y-124146681D01*
X118949848Y-124183395D01*
X118868999Y-124212323D01*
X118785704Y-124233187D01*
X118700765Y-124245787D01*
X118615000Y-124250000D01*
X116865000Y-124250000D01*
X116779235Y-124245787D01*
X116694296Y-124233187D01*
X116611001Y-124212323D01*
X116530152Y-124183395D01*
X116452528Y-124146681D01*
X116378876Y-124102536D01*
X116309906Y-124051384D01*
X116246282Y-123993718D01*
X116188616Y-123930094D01*
X116137464Y-123861124D01*
X116093319Y-123787472D01*
X116056605Y-123709848D01*
X116027677Y-123628999D01*
X116006813Y-123545704D01*
X115994213Y-123460765D01*
X115990000Y-123375000D01*
X115990000Y-121625000D01*
X115994213Y-121539235D01*
X116006813Y-121454296D01*
X116027677Y-121371001D01*
X116056605Y-121290152D01*
X116093319Y-121212528D01*
X116137464Y-121138876D01*
X116188616Y-121069906D01*
X116246282Y-121006282D01*
X116309906Y-120948616D01*
X116378876Y-120897464D01*
X116452528Y-120853319D01*
X116530152Y-120816605D01*
X116611001Y-120787677D01*
X116694296Y-120766813D01*
X116779235Y-120754213D01*
X116865000Y-120750000D01*
X118615000Y-120750000D01*
X118700765Y-120754213D01*
X118700765Y-120754213D01*
G37*
D11*
X117740000Y-122500000D03*
D20*
G36*
X114113513Y-124003611D02*
G01*
X114186318Y-124014411D01*
X114257714Y-124032295D01*
X114327013Y-124057090D01*
X114393548Y-124088559D01*
X114456678Y-124126398D01*
X114515795Y-124170242D01*
X114570330Y-124219670D01*
X114619758Y-124274205D01*
X114663602Y-124333322D01*
X114701441Y-124396452D01*
X114732910Y-124462987D01*
X114757705Y-124532286D01*
X114775589Y-124603682D01*
X114786389Y-124676487D01*
X114790000Y-124750000D01*
X114790000Y-126250000D01*
X114786389Y-126323513D01*
X114775589Y-126396318D01*
X114757705Y-126467714D01*
X114732910Y-126537013D01*
X114701441Y-126603548D01*
X114663602Y-126666678D01*
X114619758Y-126725795D01*
X114570330Y-126780330D01*
X114515795Y-126829758D01*
X114456678Y-126873602D01*
X114393548Y-126911441D01*
X114327013Y-126942910D01*
X114257714Y-126967705D01*
X114186318Y-126985589D01*
X114113513Y-126996389D01*
X114040000Y-127000000D01*
X112040000Y-127000000D01*
X111966487Y-126996389D01*
X111893682Y-126985589D01*
X111822286Y-126967705D01*
X111752987Y-126942910D01*
X111686452Y-126911441D01*
X111623322Y-126873602D01*
X111564205Y-126829758D01*
X111509670Y-126780330D01*
X111460242Y-126725795D01*
X111416398Y-126666678D01*
X111378559Y-126603548D01*
X111347090Y-126537013D01*
X111322295Y-126467714D01*
X111304411Y-126396318D01*
X111293611Y-126323513D01*
X111290000Y-126250000D01*
X111290000Y-124750000D01*
X111293611Y-124676487D01*
X111304411Y-124603682D01*
X111322295Y-124532286D01*
X111347090Y-124462987D01*
X111378559Y-124396452D01*
X111416398Y-124333322D01*
X111460242Y-124274205D01*
X111509670Y-124219670D01*
X111564205Y-124170242D01*
X111623322Y-124126398D01*
X111686452Y-124088559D01*
X111752987Y-124057090D01*
X111822286Y-124032295D01*
X111893682Y-124014411D01*
X111966487Y-124003611D01*
X112040000Y-124000000D01*
X114040000Y-124000000D01*
X114113513Y-124003611D01*
X114113513Y-124003611D01*
G37*
D21*
X113040000Y-125500000D03*
D22*
X113040000Y-119500000D03*
D23*
X120140000Y-96600000D03*
D24*
X114840000Y-96600000D03*
D20*
G36*
X201614505Y-128076204D02*
G01*
X201638773Y-128079804D01*
X201662572Y-128085765D01*
X201685671Y-128094030D01*
X201707850Y-128104520D01*
X201728893Y-128117132D01*
X201748599Y-128131747D01*
X201766777Y-128148223D01*
X201783253Y-128166401D01*
X201797868Y-128186107D01*
X201810480Y-128207150D01*
X201820970Y-128229329D01*
X201829235Y-128252428D01*
X201835196Y-128276227D01*
X201838796Y-128300495D01*
X201840000Y-128324999D01*
X201840000Y-128975001D01*
X201838796Y-128999505D01*
X201835196Y-129023773D01*
X201829235Y-129047572D01*
X201820970Y-129070671D01*
X201810480Y-129092850D01*
X201797868Y-129113893D01*
X201783253Y-129133599D01*
X201766777Y-129151777D01*
X201748599Y-129168253D01*
X201728893Y-129182868D01*
X201707850Y-129195480D01*
X201685671Y-129205970D01*
X201662572Y-129214235D01*
X201638773Y-129220196D01*
X201614505Y-129223796D01*
X201590001Y-129225000D01*
X200689999Y-129225000D01*
X200665495Y-129223796D01*
X200641227Y-129220196D01*
X200617428Y-129214235D01*
X200594329Y-129205970D01*
X200572150Y-129195480D01*
X200551107Y-129182868D01*
X200531401Y-129168253D01*
X200513223Y-129151777D01*
X200496747Y-129133599D01*
X200482132Y-129113893D01*
X200469520Y-129092850D01*
X200459030Y-129070671D01*
X200450765Y-129047572D01*
X200444804Y-129023773D01*
X200441204Y-128999505D01*
X200440000Y-128975001D01*
X200440000Y-128324999D01*
X200441204Y-128300495D01*
X200444804Y-128276227D01*
X200450765Y-128252428D01*
X200459030Y-128229329D01*
X200469520Y-128207150D01*
X200482132Y-128186107D01*
X200496747Y-128166401D01*
X200513223Y-128148223D01*
X200531401Y-128131747D01*
X200551107Y-128117132D01*
X200572150Y-128104520D01*
X200594329Y-128094030D01*
X200617428Y-128085765D01*
X200641227Y-128079804D01*
X200665495Y-128076204D01*
X200689999Y-128075000D01*
X201590001Y-128075000D01*
X201614505Y-128076204D01*
X201614505Y-128076204D01*
G37*
D25*
X201140000Y-128650000D03*
D20*
G36*
X201614505Y-126026204D02*
G01*
X201638773Y-126029804D01*
X201662572Y-126035765D01*
X201685671Y-126044030D01*
X201707850Y-126054520D01*
X201728893Y-126067132D01*
X201748599Y-126081747D01*
X201766777Y-126098223D01*
X201783253Y-126116401D01*
X201797868Y-126136107D01*
X201810480Y-126157150D01*
X201820970Y-126179329D01*
X201829235Y-126202428D01*
X201835196Y-126226227D01*
X201838796Y-126250495D01*
X201840000Y-126274999D01*
X201840000Y-126925001D01*
X201838796Y-126949505D01*
X201835196Y-126973773D01*
X201829235Y-126997572D01*
X201820970Y-127020671D01*
X201810480Y-127042850D01*
X201797868Y-127063893D01*
X201783253Y-127083599D01*
X201766777Y-127101777D01*
X201748599Y-127118253D01*
X201728893Y-127132868D01*
X201707850Y-127145480D01*
X201685671Y-127155970D01*
X201662572Y-127164235D01*
X201638773Y-127170196D01*
X201614505Y-127173796D01*
X201590001Y-127175000D01*
X200689999Y-127175000D01*
X200665495Y-127173796D01*
X200641227Y-127170196D01*
X200617428Y-127164235D01*
X200594329Y-127155970D01*
X200572150Y-127145480D01*
X200551107Y-127132868D01*
X200531401Y-127118253D01*
X200513223Y-127101777D01*
X200496747Y-127083599D01*
X200482132Y-127063893D01*
X200469520Y-127042850D01*
X200459030Y-127020671D01*
X200450765Y-126997572D01*
X200444804Y-126973773D01*
X200441204Y-126949505D01*
X200440000Y-126925001D01*
X200440000Y-126274999D01*
X200441204Y-126250495D01*
X200444804Y-126226227D01*
X200450765Y-126202428D01*
X200459030Y-126179329D01*
X200469520Y-126157150D01*
X200482132Y-126136107D01*
X200496747Y-126116401D01*
X200513223Y-126098223D01*
X200531401Y-126081747D01*
X200551107Y-126067132D01*
X200572150Y-126054520D01*
X200594329Y-126044030D01*
X200617428Y-126035765D01*
X200641227Y-126029804D01*
X200665495Y-126026204D01*
X200689999Y-126025000D01*
X201590001Y-126025000D01*
X201614505Y-126026204D01*
X201614505Y-126026204D01*
G37*
D25*
X201140000Y-126600000D03*
D20*
G36*
X184264505Y-121801204D02*
G01*
X184288773Y-121804804D01*
X184312572Y-121810765D01*
X184335671Y-121819030D01*
X184357850Y-121829520D01*
X184378893Y-121842132D01*
X184398599Y-121856747D01*
X184416777Y-121873223D01*
X184433253Y-121891401D01*
X184447868Y-121911107D01*
X184460480Y-121932150D01*
X184470970Y-121954329D01*
X184479235Y-121977428D01*
X184485196Y-122001227D01*
X184488796Y-122025495D01*
X184490000Y-122049999D01*
X184490000Y-122950001D01*
X184488796Y-122974505D01*
X184485196Y-122998773D01*
X184479235Y-123022572D01*
X184470970Y-123045671D01*
X184460480Y-123067850D01*
X184447868Y-123088893D01*
X184433253Y-123108599D01*
X184416777Y-123126777D01*
X184398599Y-123143253D01*
X184378893Y-123157868D01*
X184357850Y-123170480D01*
X184335671Y-123180970D01*
X184312572Y-123189235D01*
X184288773Y-123195196D01*
X184264505Y-123198796D01*
X184240001Y-123200000D01*
X183589999Y-123200000D01*
X183565495Y-123198796D01*
X183541227Y-123195196D01*
X183517428Y-123189235D01*
X183494329Y-123180970D01*
X183472150Y-123170480D01*
X183451107Y-123157868D01*
X183431401Y-123143253D01*
X183413223Y-123126777D01*
X183396747Y-123108599D01*
X183382132Y-123088893D01*
X183369520Y-123067850D01*
X183359030Y-123045671D01*
X183350765Y-123022572D01*
X183344804Y-122998773D01*
X183341204Y-122974505D01*
X183340000Y-122950001D01*
X183340000Y-122049999D01*
X183341204Y-122025495D01*
X183344804Y-122001227D01*
X183350765Y-121977428D01*
X183359030Y-121954329D01*
X183369520Y-121932150D01*
X183382132Y-121911107D01*
X183396747Y-121891401D01*
X183413223Y-121873223D01*
X183431401Y-121856747D01*
X183451107Y-121842132D01*
X183472150Y-121829520D01*
X183494329Y-121819030D01*
X183517428Y-121810765D01*
X183541227Y-121804804D01*
X183565495Y-121801204D01*
X183589999Y-121800000D01*
X184240001Y-121800000D01*
X184264505Y-121801204D01*
X184264505Y-121801204D01*
G37*
D25*
X183915000Y-122500000D03*
D20*
G36*
X186314505Y-121801204D02*
G01*
X186338773Y-121804804D01*
X186362572Y-121810765D01*
X186385671Y-121819030D01*
X186407850Y-121829520D01*
X186428893Y-121842132D01*
X186448599Y-121856747D01*
X186466777Y-121873223D01*
X186483253Y-121891401D01*
X186497868Y-121911107D01*
X186510480Y-121932150D01*
X186520970Y-121954329D01*
X186529235Y-121977428D01*
X186535196Y-122001227D01*
X186538796Y-122025495D01*
X186540000Y-122049999D01*
X186540000Y-122950001D01*
X186538796Y-122974505D01*
X186535196Y-122998773D01*
X186529235Y-123022572D01*
X186520970Y-123045671D01*
X186510480Y-123067850D01*
X186497868Y-123088893D01*
X186483253Y-123108599D01*
X186466777Y-123126777D01*
X186448599Y-123143253D01*
X186428893Y-123157868D01*
X186407850Y-123170480D01*
X186385671Y-123180970D01*
X186362572Y-123189235D01*
X186338773Y-123195196D01*
X186314505Y-123198796D01*
X186290001Y-123200000D01*
X185639999Y-123200000D01*
X185615495Y-123198796D01*
X185591227Y-123195196D01*
X185567428Y-123189235D01*
X185544329Y-123180970D01*
X185522150Y-123170480D01*
X185501107Y-123157868D01*
X185481401Y-123143253D01*
X185463223Y-123126777D01*
X185446747Y-123108599D01*
X185432132Y-123088893D01*
X185419520Y-123067850D01*
X185409030Y-123045671D01*
X185400765Y-123022572D01*
X185394804Y-122998773D01*
X185391204Y-122974505D01*
X185390000Y-122950001D01*
X185390000Y-122049999D01*
X185391204Y-122025495D01*
X185394804Y-122001227D01*
X185400765Y-121977428D01*
X185409030Y-121954329D01*
X185419520Y-121932150D01*
X185432132Y-121911107D01*
X185446747Y-121891401D01*
X185463223Y-121873223D01*
X185481401Y-121856747D01*
X185501107Y-121842132D01*
X185522150Y-121829520D01*
X185544329Y-121819030D01*
X185567428Y-121810765D01*
X185591227Y-121804804D01*
X185615495Y-121801204D01*
X185639999Y-121800000D01*
X186290001Y-121800000D01*
X186314505Y-121801204D01*
X186314505Y-121801204D01*
G37*
D25*
X185965000Y-122500000D03*
D20*
G36*
X122614505Y-124626204D02*
G01*
X122638773Y-124629804D01*
X122662572Y-124635765D01*
X122685671Y-124644030D01*
X122707850Y-124654520D01*
X122728893Y-124667132D01*
X122748599Y-124681747D01*
X122766777Y-124698223D01*
X122783253Y-124716401D01*
X122797868Y-124736107D01*
X122810480Y-124757150D01*
X122820970Y-124779329D01*
X122829235Y-124802428D01*
X122835196Y-124826227D01*
X122838796Y-124850495D01*
X122840000Y-124874999D01*
X122840000Y-125525001D01*
X122838796Y-125549505D01*
X122835196Y-125573773D01*
X122829235Y-125597572D01*
X122820970Y-125620671D01*
X122810480Y-125642850D01*
X122797868Y-125663893D01*
X122783253Y-125683599D01*
X122766777Y-125701777D01*
X122748599Y-125718253D01*
X122728893Y-125732868D01*
X122707850Y-125745480D01*
X122685671Y-125755970D01*
X122662572Y-125764235D01*
X122638773Y-125770196D01*
X122614505Y-125773796D01*
X122590001Y-125775000D01*
X121689999Y-125775000D01*
X121665495Y-125773796D01*
X121641227Y-125770196D01*
X121617428Y-125764235D01*
X121594329Y-125755970D01*
X121572150Y-125745480D01*
X121551107Y-125732868D01*
X121531401Y-125718253D01*
X121513223Y-125701777D01*
X121496747Y-125683599D01*
X121482132Y-125663893D01*
X121469520Y-125642850D01*
X121459030Y-125620671D01*
X121450765Y-125597572D01*
X121444804Y-125573773D01*
X121441204Y-125549505D01*
X121440000Y-125525001D01*
X121440000Y-124874999D01*
X121441204Y-124850495D01*
X121444804Y-124826227D01*
X121450765Y-124802428D01*
X121459030Y-124779329D01*
X121469520Y-124757150D01*
X121482132Y-124736107D01*
X121496747Y-124716401D01*
X121513223Y-124698223D01*
X121531401Y-124681747D01*
X121551107Y-124667132D01*
X121572150Y-124654520D01*
X121594329Y-124644030D01*
X121617428Y-124635765D01*
X121641227Y-124629804D01*
X121665495Y-124626204D01*
X121689999Y-124625000D01*
X122590001Y-124625000D01*
X122614505Y-124626204D01*
X122614505Y-124626204D01*
G37*
D25*
X122140000Y-125200000D03*
D20*
G36*
X122614505Y-126676204D02*
G01*
X122638773Y-126679804D01*
X122662572Y-126685765D01*
X122685671Y-126694030D01*
X122707850Y-126704520D01*
X122728893Y-126717132D01*
X122748599Y-126731747D01*
X122766777Y-126748223D01*
X122783253Y-126766401D01*
X122797868Y-126786107D01*
X122810480Y-126807150D01*
X122820970Y-126829329D01*
X122829235Y-126852428D01*
X122835196Y-126876227D01*
X122838796Y-126900495D01*
X122840000Y-126924999D01*
X122840000Y-127575001D01*
X122838796Y-127599505D01*
X122835196Y-127623773D01*
X122829235Y-127647572D01*
X122820970Y-127670671D01*
X122810480Y-127692850D01*
X122797868Y-127713893D01*
X122783253Y-127733599D01*
X122766777Y-127751777D01*
X122748599Y-127768253D01*
X122728893Y-127782868D01*
X122707850Y-127795480D01*
X122685671Y-127805970D01*
X122662572Y-127814235D01*
X122638773Y-127820196D01*
X122614505Y-127823796D01*
X122590001Y-127825000D01*
X121689999Y-127825000D01*
X121665495Y-127823796D01*
X121641227Y-127820196D01*
X121617428Y-127814235D01*
X121594329Y-127805970D01*
X121572150Y-127795480D01*
X121551107Y-127782868D01*
X121531401Y-127768253D01*
X121513223Y-127751777D01*
X121496747Y-127733599D01*
X121482132Y-127713893D01*
X121469520Y-127692850D01*
X121459030Y-127670671D01*
X121450765Y-127647572D01*
X121444804Y-127623773D01*
X121441204Y-127599505D01*
X121440000Y-127575001D01*
X121440000Y-126924999D01*
X121441204Y-126900495D01*
X121444804Y-126876227D01*
X121450765Y-126852428D01*
X121459030Y-126829329D01*
X121469520Y-126807150D01*
X121482132Y-126786107D01*
X121496747Y-126766401D01*
X121513223Y-126748223D01*
X121531401Y-126731747D01*
X121551107Y-126717132D01*
X121572150Y-126704520D01*
X121594329Y-126694030D01*
X121617428Y-126685765D01*
X121641227Y-126679804D01*
X121665495Y-126676204D01*
X121689999Y-126675000D01*
X122590001Y-126675000D01*
X122614505Y-126676204D01*
X122614505Y-126676204D01*
G37*
D25*
X122140000Y-127250000D03*
D20*
G36*
X106789505Y-95901204D02*
G01*
X106813773Y-95904804D01*
X106837572Y-95910765D01*
X106860671Y-95919030D01*
X106882850Y-95929520D01*
X106903893Y-95942132D01*
X106923599Y-95956747D01*
X106941777Y-95973223D01*
X106958253Y-95991401D01*
X106972868Y-96011107D01*
X106985480Y-96032150D01*
X106995970Y-96054329D01*
X107004235Y-96077428D01*
X107010196Y-96101227D01*
X107013796Y-96125495D01*
X107015000Y-96149999D01*
X107015000Y-97050001D01*
X107013796Y-97074505D01*
X107010196Y-97098773D01*
X107004235Y-97122572D01*
X106995970Y-97145671D01*
X106985480Y-97167850D01*
X106972868Y-97188893D01*
X106958253Y-97208599D01*
X106941777Y-97226777D01*
X106923599Y-97243253D01*
X106903893Y-97257868D01*
X106882850Y-97270480D01*
X106860671Y-97280970D01*
X106837572Y-97289235D01*
X106813773Y-97295196D01*
X106789505Y-97298796D01*
X106765001Y-97300000D01*
X106114999Y-97300000D01*
X106090495Y-97298796D01*
X106066227Y-97295196D01*
X106042428Y-97289235D01*
X106019329Y-97280970D01*
X105997150Y-97270480D01*
X105976107Y-97257868D01*
X105956401Y-97243253D01*
X105938223Y-97226777D01*
X105921747Y-97208599D01*
X105907132Y-97188893D01*
X105894520Y-97167850D01*
X105884030Y-97145671D01*
X105875765Y-97122572D01*
X105869804Y-97098773D01*
X105866204Y-97074505D01*
X105865000Y-97050001D01*
X105865000Y-96149999D01*
X105866204Y-96125495D01*
X105869804Y-96101227D01*
X105875765Y-96077428D01*
X105884030Y-96054329D01*
X105894520Y-96032150D01*
X105907132Y-96011107D01*
X105921747Y-95991401D01*
X105938223Y-95973223D01*
X105956401Y-95956747D01*
X105976107Y-95942132D01*
X105997150Y-95929520D01*
X106019329Y-95919030D01*
X106042428Y-95910765D01*
X106066227Y-95904804D01*
X106090495Y-95901204D01*
X106114999Y-95900000D01*
X106765001Y-95900000D01*
X106789505Y-95901204D01*
X106789505Y-95901204D01*
G37*
D25*
X106440000Y-96600000D03*
D20*
G36*
X108839505Y-95901204D02*
G01*
X108863773Y-95904804D01*
X108887572Y-95910765D01*
X108910671Y-95919030D01*
X108932850Y-95929520D01*
X108953893Y-95942132D01*
X108973599Y-95956747D01*
X108991777Y-95973223D01*
X109008253Y-95991401D01*
X109022868Y-96011107D01*
X109035480Y-96032150D01*
X109045970Y-96054329D01*
X109054235Y-96077428D01*
X109060196Y-96101227D01*
X109063796Y-96125495D01*
X109065000Y-96149999D01*
X109065000Y-97050001D01*
X109063796Y-97074505D01*
X109060196Y-97098773D01*
X109054235Y-97122572D01*
X109045970Y-97145671D01*
X109035480Y-97167850D01*
X109022868Y-97188893D01*
X109008253Y-97208599D01*
X108991777Y-97226777D01*
X108973599Y-97243253D01*
X108953893Y-97257868D01*
X108932850Y-97270480D01*
X108910671Y-97280970D01*
X108887572Y-97289235D01*
X108863773Y-97295196D01*
X108839505Y-97298796D01*
X108815001Y-97300000D01*
X108164999Y-97300000D01*
X108140495Y-97298796D01*
X108116227Y-97295196D01*
X108092428Y-97289235D01*
X108069329Y-97280970D01*
X108047150Y-97270480D01*
X108026107Y-97257868D01*
X108006401Y-97243253D01*
X107988223Y-97226777D01*
X107971747Y-97208599D01*
X107957132Y-97188893D01*
X107944520Y-97167850D01*
X107934030Y-97145671D01*
X107925765Y-97122572D01*
X107919804Y-97098773D01*
X107916204Y-97074505D01*
X107915000Y-97050001D01*
X107915000Y-96149999D01*
X107916204Y-96125495D01*
X107919804Y-96101227D01*
X107925765Y-96077428D01*
X107934030Y-96054329D01*
X107944520Y-96032150D01*
X107957132Y-96011107D01*
X107971747Y-95991401D01*
X107988223Y-95973223D01*
X108006401Y-95956747D01*
X108026107Y-95942132D01*
X108047150Y-95929520D01*
X108069329Y-95919030D01*
X108092428Y-95910765D01*
X108116227Y-95904804D01*
X108140495Y-95901204D01*
X108164999Y-95900000D01*
X108815001Y-95900000D01*
X108839505Y-95901204D01*
X108839505Y-95901204D01*
G37*
D25*
X108490000Y-96600000D03*
D20*
G36*
X108839505Y-100981204D02*
G01*
X108863773Y-100984804D01*
X108887572Y-100990765D01*
X108910671Y-100999030D01*
X108932850Y-101009520D01*
X108953893Y-101022132D01*
X108973599Y-101036747D01*
X108991777Y-101053223D01*
X109008253Y-101071401D01*
X109022868Y-101091107D01*
X109035480Y-101112150D01*
X109045970Y-101134329D01*
X109054235Y-101157428D01*
X109060196Y-101181227D01*
X109063796Y-101205495D01*
X109065000Y-101229999D01*
X109065000Y-102130001D01*
X109063796Y-102154505D01*
X109060196Y-102178773D01*
X109054235Y-102202572D01*
X109045970Y-102225671D01*
X109035480Y-102247850D01*
X109022868Y-102268893D01*
X109008253Y-102288599D01*
X108991777Y-102306777D01*
X108973599Y-102323253D01*
X108953893Y-102337868D01*
X108932850Y-102350480D01*
X108910671Y-102360970D01*
X108887572Y-102369235D01*
X108863773Y-102375196D01*
X108839505Y-102378796D01*
X108815001Y-102380000D01*
X108164999Y-102380000D01*
X108140495Y-102378796D01*
X108116227Y-102375196D01*
X108092428Y-102369235D01*
X108069329Y-102360970D01*
X108047150Y-102350480D01*
X108026107Y-102337868D01*
X108006401Y-102323253D01*
X107988223Y-102306777D01*
X107971747Y-102288599D01*
X107957132Y-102268893D01*
X107944520Y-102247850D01*
X107934030Y-102225671D01*
X107925765Y-102202572D01*
X107919804Y-102178773D01*
X107916204Y-102154505D01*
X107915000Y-102130001D01*
X107915000Y-101229999D01*
X107916204Y-101205495D01*
X107919804Y-101181227D01*
X107925765Y-101157428D01*
X107934030Y-101134329D01*
X107944520Y-101112150D01*
X107957132Y-101091107D01*
X107971747Y-101071401D01*
X107988223Y-101053223D01*
X108006401Y-101036747D01*
X108026107Y-101022132D01*
X108047150Y-101009520D01*
X108069329Y-100999030D01*
X108092428Y-100990765D01*
X108116227Y-100984804D01*
X108140495Y-100981204D01*
X108164999Y-100980000D01*
X108815001Y-100980000D01*
X108839505Y-100981204D01*
X108839505Y-100981204D01*
G37*
D25*
X108490000Y-101680000D03*
D20*
G36*
X106789505Y-100981204D02*
G01*
X106813773Y-100984804D01*
X106837572Y-100990765D01*
X106860671Y-100999030D01*
X106882850Y-101009520D01*
X106903893Y-101022132D01*
X106923599Y-101036747D01*
X106941777Y-101053223D01*
X106958253Y-101071401D01*
X106972868Y-101091107D01*
X106985480Y-101112150D01*
X106995970Y-101134329D01*
X107004235Y-101157428D01*
X107010196Y-101181227D01*
X107013796Y-101205495D01*
X107015000Y-101229999D01*
X107015000Y-102130001D01*
X107013796Y-102154505D01*
X107010196Y-102178773D01*
X107004235Y-102202572D01*
X106995970Y-102225671D01*
X106985480Y-102247850D01*
X106972868Y-102268893D01*
X106958253Y-102288599D01*
X106941777Y-102306777D01*
X106923599Y-102323253D01*
X106903893Y-102337868D01*
X106882850Y-102350480D01*
X106860671Y-102360970D01*
X106837572Y-102369235D01*
X106813773Y-102375196D01*
X106789505Y-102378796D01*
X106765001Y-102380000D01*
X106114999Y-102380000D01*
X106090495Y-102378796D01*
X106066227Y-102375196D01*
X106042428Y-102369235D01*
X106019329Y-102360970D01*
X105997150Y-102350480D01*
X105976107Y-102337868D01*
X105956401Y-102323253D01*
X105938223Y-102306777D01*
X105921747Y-102288599D01*
X105907132Y-102268893D01*
X105894520Y-102247850D01*
X105884030Y-102225671D01*
X105875765Y-102202572D01*
X105869804Y-102178773D01*
X105866204Y-102154505D01*
X105865000Y-102130001D01*
X105865000Y-101229999D01*
X105866204Y-101205495D01*
X105869804Y-101181227D01*
X105875765Y-101157428D01*
X105884030Y-101134329D01*
X105894520Y-101112150D01*
X105907132Y-101091107D01*
X105921747Y-101071401D01*
X105938223Y-101053223D01*
X105956401Y-101036747D01*
X105976107Y-101022132D01*
X105997150Y-101009520D01*
X106019329Y-100999030D01*
X106042428Y-100990765D01*
X106066227Y-100984804D01*
X106090495Y-100981204D01*
X106114999Y-100980000D01*
X106765001Y-100980000D01*
X106789505Y-100981204D01*
X106789505Y-100981204D01*
G37*
D25*
X106440000Y-101680000D03*
D13*
X91940000Y-99120000D03*
X91940000Y-96580000D03*
X91940000Y-94040000D03*
X91940000Y-91500000D03*
X91940000Y-88960000D03*
X91940000Y-86420000D03*
X91940000Y-83880000D03*
X91940000Y-81340000D03*
D14*
X91940000Y-78800000D03*
D13*
X204740000Y-128540000D03*
D14*
X204740000Y-126000000D03*
D13*
X92040000Y-131700000D03*
X92040000Y-129160000D03*
X92040000Y-126620000D03*
X92040000Y-124080000D03*
X92040000Y-121540000D03*
X92040000Y-119000000D03*
X92040000Y-116460000D03*
X92040000Y-113920000D03*
X92040000Y-111380000D03*
X92040000Y-108840000D03*
X92040000Y-106300000D03*
D14*
X92040000Y-103760000D03*
D13*
X104160000Y-129160000D03*
X104160000Y-131700000D03*
X101620000Y-129160000D03*
X101620000Y-131700000D03*
X99080000Y-129160000D03*
X99080000Y-131700000D03*
X96540000Y-129160000D03*
D14*
X96540000Y-131700000D03*
D20*
G36*
X122614505Y-129901204D02*
G01*
X122638773Y-129904804D01*
X122662572Y-129910765D01*
X122685671Y-129919030D01*
X122707850Y-129929520D01*
X122728893Y-129942132D01*
X122748599Y-129956747D01*
X122766777Y-129973223D01*
X122783253Y-129991401D01*
X122797868Y-130011107D01*
X122810480Y-130032150D01*
X122820970Y-130054329D01*
X122829235Y-130077428D01*
X122835196Y-130101227D01*
X122838796Y-130125495D01*
X122840000Y-130149999D01*
X122840000Y-130800001D01*
X122838796Y-130824505D01*
X122835196Y-130848773D01*
X122829235Y-130872572D01*
X122820970Y-130895671D01*
X122810480Y-130917850D01*
X122797868Y-130938893D01*
X122783253Y-130958599D01*
X122766777Y-130976777D01*
X122748599Y-130993253D01*
X122728893Y-131007868D01*
X122707850Y-131020480D01*
X122685671Y-131030970D01*
X122662572Y-131039235D01*
X122638773Y-131045196D01*
X122614505Y-131048796D01*
X122590001Y-131050000D01*
X121689999Y-131050000D01*
X121665495Y-131048796D01*
X121641227Y-131045196D01*
X121617428Y-131039235D01*
X121594329Y-131030970D01*
X121572150Y-131020480D01*
X121551107Y-131007868D01*
X121531401Y-130993253D01*
X121513223Y-130976777D01*
X121496747Y-130958599D01*
X121482132Y-130938893D01*
X121469520Y-130917850D01*
X121459030Y-130895671D01*
X121450765Y-130872572D01*
X121444804Y-130848773D01*
X121441204Y-130824505D01*
X121440000Y-130800001D01*
X121440000Y-130149999D01*
X121441204Y-130125495D01*
X121444804Y-130101227D01*
X121450765Y-130077428D01*
X121459030Y-130054329D01*
X121469520Y-130032150D01*
X121482132Y-130011107D01*
X121496747Y-129991401D01*
X121513223Y-129973223D01*
X121531401Y-129956747D01*
X121551107Y-129942132D01*
X121572150Y-129929520D01*
X121594329Y-129919030D01*
X121617428Y-129910765D01*
X121641227Y-129904804D01*
X121665495Y-129901204D01*
X121689999Y-129900000D01*
X122590001Y-129900000D01*
X122614505Y-129901204D01*
X122614505Y-129901204D01*
G37*
D25*
X122140000Y-130475000D03*
D20*
G36*
X122614505Y-131951204D02*
G01*
X122638773Y-131954804D01*
X122662572Y-131960765D01*
X122685671Y-131969030D01*
X122707850Y-131979520D01*
X122728893Y-131992132D01*
X122748599Y-132006747D01*
X122766777Y-132023223D01*
X122783253Y-132041401D01*
X122797868Y-132061107D01*
X122810480Y-132082150D01*
X122820970Y-132104329D01*
X122829235Y-132127428D01*
X122835196Y-132151227D01*
X122838796Y-132175495D01*
X122840000Y-132199999D01*
X122840000Y-132850001D01*
X122838796Y-132874505D01*
X122835196Y-132898773D01*
X122829235Y-132922572D01*
X122820970Y-132945671D01*
X122810480Y-132967850D01*
X122797868Y-132988893D01*
X122783253Y-133008599D01*
X122766777Y-133026777D01*
X122748599Y-133043253D01*
X122728893Y-133057868D01*
X122707850Y-133070480D01*
X122685671Y-133080970D01*
X122662572Y-133089235D01*
X122638773Y-133095196D01*
X122614505Y-133098796D01*
X122590001Y-133100000D01*
X121689999Y-133100000D01*
X121665495Y-133098796D01*
X121641227Y-133095196D01*
X121617428Y-133089235D01*
X121594329Y-133080970D01*
X121572150Y-133070480D01*
X121551107Y-133057868D01*
X121531401Y-133043253D01*
X121513223Y-133026777D01*
X121496747Y-133008599D01*
X121482132Y-132988893D01*
X121469520Y-132967850D01*
X121459030Y-132945671D01*
X121450765Y-132922572D01*
X121444804Y-132898773D01*
X121441204Y-132874505D01*
X121440000Y-132850001D01*
X121440000Y-132199999D01*
X121441204Y-132175495D01*
X121444804Y-132151227D01*
X121450765Y-132127428D01*
X121459030Y-132104329D01*
X121469520Y-132082150D01*
X121482132Y-132061107D01*
X121496747Y-132041401D01*
X121513223Y-132023223D01*
X121531401Y-132006747D01*
X121551107Y-131992132D01*
X121572150Y-131979520D01*
X121594329Y-131969030D01*
X121617428Y-131960765D01*
X121641227Y-131954804D01*
X121665495Y-131951204D01*
X121689999Y-131950000D01*
X122590001Y-131950000D01*
X122614505Y-131951204D01*
X122614505Y-131951204D01*
G37*
D25*
X122140000Y-132525000D03*
D20*
G36*
X168314505Y-121801204D02*
G01*
X168338773Y-121804804D01*
X168362572Y-121810765D01*
X168385671Y-121819030D01*
X168407850Y-121829520D01*
X168428893Y-121842132D01*
X168448599Y-121856747D01*
X168466777Y-121873223D01*
X168483253Y-121891401D01*
X168497868Y-121911107D01*
X168510480Y-121932150D01*
X168520970Y-121954329D01*
X168529235Y-121977428D01*
X168535196Y-122001227D01*
X168538796Y-122025495D01*
X168540000Y-122049999D01*
X168540000Y-122950001D01*
X168538796Y-122974505D01*
X168535196Y-122998773D01*
X168529235Y-123022572D01*
X168520970Y-123045671D01*
X168510480Y-123067850D01*
X168497868Y-123088893D01*
X168483253Y-123108599D01*
X168466777Y-123126777D01*
X168448599Y-123143253D01*
X168428893Y-123157868D01*
X168407850Y-123170480D01*
X168385671Y-123180970D01*
X168362572Y-123189235D01*
X168338773Y-123195196D01*
X168314505Y-123198796D01*
X168290001Y-123200000D01*
X167639999Y-123200000D01*
X167615495Y-123198796D01*
X167591227Y-123195196D01*
X167567428Y-123189235D01*
X167544329Y-123180970D01*
X167522150Y-123170480D01*
X167501107Y-123157868D01*
X167481401Y-123143253D01*
X167463223Y-123126777D01*
X167446747Y-123108599D01*
X167432132Y-123088893D01*
X167419520Y-123067850D01*
X167409030Y-123045671D01*
X167400765Y-123022572D01*
X167394804Y-122998773D01*
X167391204Y-122974505D01*
X167390000Y-122950001D01*
X167390000Y-122049999D01*
X167391204Y-122025495D01*
X167394804Y-122001227D01*
X167400765Y-121977428D01*
X167409030Y-121954329D01*
X167419520Y-121932150D01*
X167432132Y-121911107D01*
X167446747Y-121891401D01*
X167463223Y-121873223D01*
X167481401Y-121856747D01*
X167501107Y-121842132D01*
X167522150Y-121829520D01*
X167544329Y-121819030D01*
X167567428Y-121810765D01*
X167591227Y-121804804D01*
X167615495Y-121801204D01*
X167639999Y-121800000D01*
X168290001Y-121800000D01*
X168314505Y-121801204D01*
X168314505Y-121801204D01*
G37*
D25*
X167965000Y-122500000D03*
D20*
G36*
X166264505Y-121801204D02*
G01*
X166288773Y-121804804D01*
X166312572Y-121810765D01*
X166335671Y-121819030D01*
X166357850Y-121829520D01*
X166378893Y-121842132D01*
X166398599Y-121856747D01*
X166416777Y-121873223D01*
X166433253Y-121891401D01*
X166447868Y-121911107D01*
X166460480Y-121932150D01*
X166470970Y-121954329D01*
X166479235Y-121977428D01*
X166485196Y-122001227D01*
X166488796Y-122025495D01*
X166490000Y-122049999D01*
X166490000Y-122950001D01*
X166488796Y-122974505D01*
X166485196Y-122998773D01*
X166479235Y-123022572D01*
X166470970Y-123045671D01*
X166460480Y-123067850D01*
X166447868Y-123088893D01*
X166433253Y-123108599D01*
X166416777Y-123126777D01*
X166398599Y-123143253D01*
X166378893Y-123157868D01*
X166357850Y-123170480D01*
X166335671Y-123180970D01*
X166312572Y-123189235D01*
X166288773Y-123195196D01*
X166264505Y-123198796D01*
X166240001Y-123200000D01*
X165589999Y-123200000D01*
X165565495Y-123198796D01*
X165541227Y-123195196D01*
X165517428Y-123189235D01*
X165494329Y-123180970D01*
X165472150Y-123170480D01*
X165451107Y-123157868D01*
X165431401Y-123143253D01*
X165413223Y-123126777D01*
X165396747Y-123108599D01*
X165382132Y-123088893D01*
X165369520Y-123067850D01*
X165359030Y-123045671D01*
X165350765Y-123022572D01*
X165344804Y-122998773D01*
X165341204Y-122974505D01*
X165340000Y-122950001D01*
X165340000Y-122049999D01*
X165341204Y-122025495D01*
X165344804Y-122001227D01*
X165350765Y-121977428D01*
X165359030Y-121954329D01*
X165369520Y-121932150D01*
X165382132Y-121911107D01*
X165396747Y-121891401D01*
X165413223Y-121873223D01*
X165431401Y-121856747D01*
X165451107Y-121842132D01*
X165472150Y-121829520D01*
X165494329Y-121819030D01*
X165517428Y-121810765D01*
X165541227Y-121804804D01*
X165565495Y-121801204D01*
X165589999Y-121800000D01*
X166240001Y-121800000D01*
X166264505Y-121801204D01*
X166264505Y-121801204D01*
G37*
D25*
X165915000Y-122500000D03*
D20*
G36*
X99614505Y-77201204D02*
G01*
X99638773Y-77204804D01*
X99662572Y-77210765D01*
X99685671Y-77219030D01*
X99707850Y-77229520D01*
X99728893Y-77242132D01*
X99748599Y-77256747D01*
X99766777Y-77273223D01*
X99783253Y-77291401D01*
X99797868Y-77311107D01*
X99810480Y-77332150D01*
X99820970Y-77354329D01*
X99829235Y-77377428D01*
X99835196Y-77401227D01*
X99838796Y-77425495D01*
X99840000Y-77449999D01*
X99840000Y-78350001D01*
X99838796Y-78374505D01*
X99835196Y-78398773D01*
X99829235Y-78422572D01*
X99820970Y-78445671D01*
X99810480Y-78467850D01*
X99797868Y-78488893D01*
X99783253Y-78508599D01*
X99766777Y-78526777D01*
X99748599Y-78543253D01*
X99728893Y-78557868D01*
X99707850Y-78570480D01*
X99685671Y-78580970D01*
X99662572Y-78589235D01*
X99638773Y-78595196D01*
X99614505Y-78598796D01*
X99590001Y-78600000D01*
X98939999Y-78600000D01*
X98915495Y-78598796D01*
X98891227Y-78595196D01*
X98867428Y-78589235D01*
X98844329Y-78580970D01*
X98822150Y-78570480D01*
X98801107Y-78557868D01*
X98781401Y-78543253D01*
X98763223Y-78526777D01*
X98746747Y-78508599D01*
X98732132Y-78488893D01*
X98719520Y-78467850D01*
X98709030Y-78445671D01*
X98700765Y-78422572D01*
X98694804Y-78398773D01*
X98691204Y-78374505D01*
X98690000Y-78350001D01*
X98690000Y-77449999D01*
X98691204Y-77425495D01*
X98694804Y-77401227D01*
X98700765Y-77377428D01*
X98709030Y-77354329D01*
X98719520Y-77332150D01*
X98732132Y-77311107D01*
X98746747Y-77291401D01*
X98763223Y-77273223D01*
X98781401Y-77256747D01*
X98801107Y-77242132D01*
X98822150Y-77229520D01*
X98844329Y-77219030D01*
X98867428Y-77210765D01*
X98891227Y-77204804D01*
X98915495Y-77201204D01*
X98939999Y-77200000D01*
X99590001Y-77200000D01*
X99614505Y-77201204D01*
X99614505Y-77201204D01*
G37*
D25*
X99265000Y-77900000D03*
D20*
G36*
X97564505Y-77201204D02*
G01*
X97588773Y-77204804D01*
X97612572Y-77210765D01*
X97635671Y-77219030D01*
X97657850Y-77229520D01*
X97678893Y-77242132D01*
X97698599Y-77256747D01*
X97716777Y-77273223D01*
X97733253Y-77291401D01*
X97747868Y-77311107D01*
X97760480Y-77332150D01*
X97770970Y-77354329D01*
X97779235Y-77377428D01*
X97785196Y-77401227D01*
X97788796Y-77425495D01*
X97790000Y-77449999D01*
X97790000Y-78350001D01*
X97788796Y-78374505D01*
X97785196Y-78398773D01*
X97779235Y-78422572D01*
X97770970Y-78445671D01*
X97760480Y-78467850D01*
X97747868Y-78488893D01*
X97733253Y-78508599D01*
X97716777Y-78526777D01*
X97698599Y-78543253D01*
X97678893Y-78557868D01*
X97657850Y-78570480D01*
X97635671Y-78580970D01*
X97612572Y-78589235D01*
X97588773Y-78595196D01*
X97564505Y-78598796D01*
X97540001Y-78600000D01*
X96889999Y-78600000D01*
X96865495Y-78598796D01*
X96841227Y-78595196D01*
X96817428Y-78589235D01*
X96794329Y-78580970D01*
X96772150Y-78570480D01*
X96751107Y-78557868D01*
X96731401Y-78543253D01*
X96713223Y-78526777D01*
X96696747Y-78508599D01*
X96682132Y-78488893D01*
X96669520Y-78467850D01*
X96659030Y-78445671D01*
X96650765Y-78422572D01*
X96644804Y-78398773D01*
X96641204Y-78374505D01*
X96640000Y-78350001D01*
X96640000Y-77449999D01*
X96641204Y-77425495D01*
X96644804Y-77401227D01*
X96650765Y-77377428D01*
X96659030Y-77354329D01*
X96669520Y-77332150D01*
X96682132Y-77311107D01*
X96696747Y-77291401D01*
X96713223Y-77273223D01*
X96731401Y-77256747D01*
X96751107Y-77242132D01*
X96772150Y-77229520D01*
X96794329Y-77219030D01*
X96817428Y-77210765D01*
X96841227Y-77204804D01*
X96865495Y-77201204D01*
X96889999Y-77200000D01*
X97540001Y-77200000D01*
X97564505Y-77201204D01*
X97564505Y-77201204D01*
G37*
D25*
X97215000Y-77900000D03*
D20*
G36*
X187114505Y-90201204D02*
G01*
X187138773Y-90204804D01*
X187162572Y-90210765D01*
X187185671Y-90219030D01*
X187207850Y-90229520D01*
X187228893Y-90242132D01*
X187248599Y-90256747D01*
X187266777Y-90273223D01*
X187283253Y-90291401D01*
X187297868Y-90311107D01*
X187310480Y-90332150D01*
X187320970Y-90354329D01*
X187329235Y-90377428D01*
X187335196Y-90401227D01*
X187338796Y-90425495D01*
X187340000Y-90449999D01*
X187340000Y-91350001D01*
X187338796Y-91374505D01*
X187335196Y-91398773D01*
X187329235Y-91422572D01*
X187320970Y-91445671D01*
X187310480Y-91467850D01*
X187297868Y-91488893D01*
X187283253Y-91508599D01*
X187266777Y-91526777D01*
X187248599Y-91543253D01*
X187228893Y-91557868D01*
X187207850Y-91570480D01*
X187185671Y-91580970D01*
X187162572Y-91589235D01*
X187138773Y-91595196D01*
X187114505Y-91598796D01*
X187090001Y-91600000D01*
X186439999Y-91600000D01*
X186415495Y-91598796D01*
X186391227Y-91595196D01*
X186367428Y-91589235D01*
X186344329Y-91580970D01*
X186322150Y-91570480D01*
X186301107Y-91557868D01*
X186281401Y-91543253D01*
X186263223Y-91526777D01*
X186246747Y-91508599D01*
X186232132Y-91488893D01*
X186219520Y-91467850D01*
X186209030Y-91445671D01*
X186200765Y-91422572D01*
X186194804Y-91398773D01*
X186191204Y-91374505D01*
X186190000Y-91350001D01*
X186190000Y-90449999D01*
X186191204Y-90425495D01*
X186194804Y-90401227D01*
X186200765Y-90377428D01*
X186209030Y-90354329D01*
X186219520Y-90332150D01*
X186232132Y-90311107D01*
X186246747Y-90291401D01*
X186263223Y-90273223D01*
X186281401Y-90256747D01*
X186301107Y-90242132D01*
X186322150Y-90229520D01*
X186344329Y-90219030D01*
X186367428Y-90210765D01*
X186391227Y-90204804D01*
X186415495Y-90201204D01*
X186439999Y-90200000D01*
X187090001Y-90200000D01*
X187114505Y-90201204D01*
X187114505Y-90201204D01*
G37*
D25*
X186765000Y-90900000D03*
D20*
G36*
X185064505Y-90201204D02*
G01*
X185088773Y-90204804D01*
X185112572Y-90210765D01*
X185135671Y-90219030D01*
X185157850Y-90229520D01*
X185178893Y-90242132D01*
X185198599Y-90256747D01*
X185216777Y-90273223D01*
X185233253Y-90291401D01*
X185247868Y-90311107D01*
X185260480Y-90332150D01*
X185270970Y-90354329D01*
X185279235Y-90377428D01*
X185285196Y-90401227D01*
X185288796Y-90425495D01*
X185290000Y-90449999D01*
X185290000Y-91350001D01*
X185288796Y-91374505D01*
X185285196Y-91398773D01*
X185279235Y-91422572D01*
X185270970Y-91445671D01*
X185260480Y-91467850D01*
X185247868Y-91488893D01*
X185233253Y-91508599D01*
X185216777Y-91526777D01*
X185198599Y-91543253D01*
X185178893Y-91557868D01*
X185157850Y-91570480D01*
X185135671Y-91580970D01*
X185112572Y-91589235D01*
X185088773Y-91595196D01*
X185064505Y-91598796D01*
X185040001Y-91600000D01*
X184389999Y-91600000D01*
X184365495Y-91598796D01*
X184341227Y-91595196D01*
X184317428Y-91589235D01*
X184294329Y-91580970D01*
X184272150Y-91570480D01*
X184251107Y-91557868D01*
X184231401Y-91543253D01*
X184213223Y-91526777D01*
X184196747Y-91508599D01*
X184182132Y-91488893D01*
X184169520Y-91467850D01*
X184159030Y-91445671D01*
X184150765Y-91422572D01*
X184144804Y-91398773D01*
X184141204Y-91374505D01*
X184140000Y-91350001D01*
X184140000Y-90449999D01*
X184141204Y-90425495D01*
X184144804Y-90401227D01*
X184150765Y-90377428D01*
X184159030Y-90354329D01*
X184169520Y-90332150D01*
X184182132Y-90311107D01*
X184196747Y-90291401D01*
X184213223Y-90273223D01*
X184231401Y-90256747D01*
X184251107Y-90242132D01*
X184272150Y-90229520D01*
X184294329Y-90219030D01*
X184317428Y-90210765D01*
X184341227Y-90204804D01*
X184365495Y-90201204D01*
X184389999Y-90200000D01*
X185040001Y-90200000D01*
X185064505Y-90201204D01*
X185064505Y-90201204D01*
G37*
D25*
X184715000Y-90900000D03*
D20*
G36*
X199114505Y-130476204D02*
G01*
X199138773Y-130479804D01*
X199162572Y-130485765D01*
X199185671Y-130494030D01*
X199207850Y-130504520D01*
X199228893Y-130517132D01*
X199248599Y-130531747D01*
X199266777Y-130548223D01*
X199283253Y-130566401D01*
X199297868Y-130586107D01*
X199310480Y-130607150D01*
X199320970Y-130629329D01*
X199329235Y-130652428D01*
X199335196Y-130676227D01*
X199338796Y-130700495D01*
X199340000Y-130724999D01*
X199340000Y-131375001D01*
X199338796Y-131399505D01*
X199335196Y-131423773D01*
X199329235Y-131447572D01*
X199320970Y-131470671D01*
X199310480Y-131492850D01*
X199297868Y-131513893D01*
X199283253Y-131533599D01*
X199266777Y-131551777D01*
X199248599Y-131568253D01*
X199228893Y-131582868D01*
X199207850Y-131595480D01*
X199185671Y-131605970D01*
X199162572Y-131614235D01*
X199138773Y-131620196D01*
X199114505Y-131623796D01*
X199090001Y-131625000D01*
X198189999Y-131625000D01*
X198165495Y-131623796D01*
X198141227Y-131620196D01*
X198117428Y-131614235D01*
X198094329Y-131605970D01*
X198072150Y-131595480D01*
X198051107Y-131582868D01*
X198031401Y-131568253D01*
X198013223Y-131551777D01*
X197996747Y-131533599D01*
X197982132Y-131513893D01*
X197969520Y-131492850D01*
X197959030Y-131470671D01*
X197950765Y-131447572D01*
X197944804Y-131423773D01*
X197941204Y-131399505D01*
X197940000Y-131375001D01*
X197940000Y-130724999D01*
X197941204Y-130700495D01*
X197944804Y-130676227D01*
X197950765Y-130652428D01*
X197959030Y-130629329D01*
X197969520Y-130607150D01*
X197982132Y-130586107D01*
X197996747Y-130566401D01*
X198013223Y-130548223D01*
X198031401Y-130531747D01*
X198051107Y-130517132D01*
X198072150Y-130504520D01*
X198094329Y-130494030D01*
X198117428Y-130485765D01*
X198141227Y-130479804D01*
X198165495Y-130476204D01*
X198189999Y-130475000D01*
X199090001Y-130475000D01*
X199114505Y-130476204D01*
X199114505Y-130476204D01*
G37*
D25*
X198640000Y-131050000D03*
D20*
G36*
X199114505Y-132526204D02*
G01*
X199138773Y-132529804D01*
X199162572Y-132535765D01*
X199185671Y-132544030D01*
X199207850Y-132554520D01*
X199228893Y-132567132D01*
X199248599Y-132581747D01*
X199266777Y-132598223D01*
X199283253Y-132616401D01*
X199297868Y-132636107D01*
X199310480Y-132657150D01*
X199320970Y-132679329D01*
X199329235Y-132702428D01*
X199335196Y-132726227D01*
X199338796Y-132750495D01*
X199340000Y-132774999D01*
X199340000Y-133425001D01*
X199338796Y-133449505D01*
X199335196Y-133473773D01*
X199329235Y-133497572D01*
X199320970Y-133520671D01*
X199310480Y-133542850D01*
X199297868Y-133563893D01*
X199283253Y-133583599D01*
X199266777Y-133601777D01*
X199248599Y-133618253D01*
X199228893Y-133632868D01*
X199207850Y-133645480D01*
X199185671Y-133655970D01*
X199162572Y-133664235D01*
X199138773Y-133670196D01*
X199114505Y-133673796D01*
X199090001Y-133675000D01*
X198189999Y-133675000D01*
X198165495Y-133673796D01*
X198141227Y-133670196D01*
X198117428Y-133664235D01*
X198094329Y-133655970D01*
X198072150Y-133645480D01*
X198051107Y-133632868D01*
X198031401Y-133618253D01*
X198013223Y-133601777D01*
X197996747Y-133583599D01*
X197982132Y-133563893D01*
X197969520Y-133542850D01*
X197959030Y-133520671D01*
X197950765Y-133497572D01*
X197944804Y-133473773D01*
X197941204Y-133449505D01*
X197940000Y-133425001D01*
X197940000Y-132774999D01*
X197941204Y-132750495D01*
X197944804Y-132726227D01*
X197950765Y-132702428D01*
X197959030Y-132679329D01*
X197969520Y-132657150D01*
X197982132Y-132636107D01*
X197996747Y-132616401D01*
X198013223Y-132598223D01*
X198031401Y-132581747D01*
X198051107Y-132567132D01*
X198072150Y-132554520D01*
X198094329Y-132544030D01*
X198117428Y-132535765D01*
X198141227Y-132529804D01*
X198165495Y-132526204D01*
X198189999Y-132525000D01*
X199090001Y-132525000D01*
X199114505Y-132526204D01*
X199114505Y-132526204D01*
G37*
D25*
X198640000Y-133100000D03*
D20*
G36*
X126064505Y-77301204D02*
G01*
X126088773Y-77304804D01*
X126112572Y-77310765D01*
X126135671Y-77319030D01*
X126157850Y-77329520D01*
X126178893Y-77342132D01*
X126198599Y-77356747D01*
X126216777Y-77373223D01*
X126233253Y-77391401D01*
X126247868Y-77411107D01*
X126260480Y-77432150D01*
X126270970Y-77454329D01*
X126279235Y-77477428D01*
X126285196Y-77501227D01*
X126288796Y-77525495D01*
X126290000Y-77549999D01*
X126290000Y-78450001D01*
X126288796Y-78474505D01*
X126285196Y-78498773D01*
X126279235Y-78522572D01*
X126270970Y-78545671D01*
X126260480Y-78567850D01*
X126247868Y-78588893D01*
X126233253Y-78608599D01*
X126216777Y-78626777D01*
X126198599Y-78643253D01*
X126178893Y-78657868D01*
X126157850Y-78670480D01*
X126135671Y-78680970D01*
X126112572Y-78689235D01*
X126088773Y-78695196D01*
X126064505Y-78698796D01*
X126040001Y-78700000D01*
X125389999Y-78700000D01*
X125365495Y-78698796D01*
X125341227Y-78695196D01*
X125317428Y-78689235D01*
X125294329Y-78680970D01*
X125272150Y-78670480D01*
X125251107Y-78657868D01*
X125231401Y-78643253D01*
X125213223Y-78626777D01*
X125196747Y-78608599D01*
X125182132Y-78588893D01*
X125169520Y-78567850D01*
X125159030Y-78545671D01*
X125150765Y-78522572D01*
X125144804Y-78498773D01*
X125141204Y-78474505D01*
X125140000Y-78450001D01*
X125140000Y-77549999D01*
X125141204Y-77525495D01*
X125144804Y-77501227D01*
X125150765Y-77477428D01*
X125159030Y-77454329D01*
X125169520Y-77432150D01*
X125182132Y-77411107D01*
X125196747Y-77391401D01*
X125213223Y-77373223D01*
X125231401Y-77356747D01*
X125251107Y-77342132D01*
X125272150Y-77329520D01*
X125294329Y-77319030D01*
X125317428Y-77310765D01*
X125341227Y-77304804D01*
X125365495Y-77301204D01*
X125389999Y-77300000D01*
X126040001Y-77300000D01*
X126064505Y-77301204D01*
X126064505Y-77301204D01*
G37*
D25*
X125715000Y-78000000D03*
D20*
G36*
X128114505Y-77301204D02*
G01*
X128138773Y-77304804D01*
X128162572Y-77310765D01*
X128185671Y-77319030D01*
X128207850Y-77329520D01*
X128228893Y-77342132D01*
X128248599Y-77356747D01*
X128266777Y-77373223D01*
X128283253Y-77391401D01*
X128297868Y-77411107D01*
X128310480Y-77432150D01*
X128320970Y-77454329D01*
X128329235Y-77477428D01*
X128335196Y-77501227D01*
X128338796Y-77525495D01*
X128340000Y-77549999D01*
X128340000Y-78450001D01*
X128338796Y-78474505D01*
X128335196Y-78498773D01*
X128329235Y-78522572D01*
X128320970Y-78545671D01*
X128310480Y-78567850D01*
X128297868Y-78588893D01*
X128283253Y-78608599D01*
X128266777Y-78626777D01*
X128248599Y-78643253D01*
X128228893Y-78657868D01*
X128207850Y-78670480D01*
X128185671Y-78680970D01*
X128162572Y-78689235D01*
X128138773Y-78695196D01*
X128114505Y-78698796D01*
X128090001Y-78700000D01*
X127439999Y-78700000D01*
X127415495Y-78698796D01*
X127391227Y-78695196D01*
X127367428Y-78689235D01*
X127344329Y-78680970D01*
X127322150Y-78670480D01*
X127301107Y-78657868D01*
X127281401Y-78643253D01*
X127263223Y-78626777D01*
X127246747Y-78608599D01*
X127232132Y-78588893D01*
X127219520Y-78567850D01*
X127209030Y-78545671D01*
X127200765Y-78522572D01*
X127194804Y-78498773D01*
X127191204Y-78474505D01*
X127190000Y-78450001D01*
X127190000Y-77549999D01*
X127191204Y-77525495D01*
X127194804Y-77501227D01*
X127200765Y-77477428D01*
X127209030Y-77454329D01*
X127219520Y-77432150D01*
X127232132Y-77411107D01*
X127246747Y-77391401D01*
X127263223Y-77373223D01*
X127281401Y-77356747D01*
X127301107Y-77342132D01*
X127322150Y-77329520D01*
X127344329Y-77319030D01*
X127367428Y-77310765D01*
X127391227Y-77304804D01*
X127415495Y-77301204D01*
X127439999Y-77300000D01*
X128090001Y-77300000D01*
X128114505Y-77301204D01*
X128114505Y-77301204D01*
G37*
D25*
X127765000Y-78000000D03*
D20*
G36*
X128489505Y-116101204D02*
G01*
X128513773Y-116104804D01*
X128537572Y-116110765D01*
X128560671Y-116119030D01*
X128582850Y-116129520D01*
X128603893Y-116142132D01*
X128623599Y-116156747D01*
X128641777Y-116173223D01*
X128658253Y-116191401D01*
X128672868Y-116211107D01*
X128685480Y-116232150D01*
X128695970Y-116254329D01*
X128704235Y-116277428D01*
X128710196Y-116301227D01*
X128713796Y-116325495D01*
X128715000Y-116349999D01*
X128715000Y-117250001D01*
X128713796Y-117274505D01*
X128710196Y-117298773D01*
X128704235Y-117322572D01*
X128695970Y-117345671D01*
X128685480Y-117367850D01*
X128672868Y-117388893D01*
X128658253Y-117408599D01*
X128641777Y-117426777D01*
X128623599Y-117443253D01*
X128603893Y-117457868D01*
X128582850Y-117470480D01*
X128560671Y-117480970D01*
X128537572Y-117489235D01*
X128513773Y-117495196D01*
X128489505Y-117498796D01*
X128465001Y-117500000D01*
X127814999Y-117500000D01*
X127790495Y-117498796D01*
X127766227Y-117495196D01*
X127742428Y-117489235D01*
X127719329Y-117480970D01*
X127697150Y-117470480D01*
X127676107Y-117457868D01*
X127656401Y-117443253D01*
X127638223Y-117426777D01*
X127621747Y-117408599D01*
X127607132Y-117388893D01*
X127594520Y-117367850D01*
X127584030Y-117345671D01*
X127575765Y-117322572D01*
X127569804Y-117298773D01*
X127566204Y-117274505D01*
X127565000Y-117250001D01*
X127565000Y-116349999D01*
X127566204Y-116325495D01*
X127569804Y-116301227D01*
X127575765Y-116277428D01*
X127584030Y-116254329D01*
X127594520Y-116232150D01*
X127607132Y-116211107D01*
X127621747Y-116191401D01*
X127638223Y-116173223D01*
X127656401Y-116156747D01*
X127676107Y-116142132D01*
X127697150Y-116129520D01*
X127719329Y-116119030D01*
X127742428Y-116110765D01*
X127766227Y-116104804D01*
X127790495Y-116101204D01*
X127814999Y-116100000D01*
X128465001Y-116100000D01*
X128489505Y-116101204D01*
X128489505Y-116101204D01*
G37*
D25*
X128140000Y-116800000D03*
D20*
G36*
X130539505Y-116101204D02*
G01*
X130563773Y-116104804D01*
X130587572Y-116110765D01*
X130610671Y-116119030D01*
X130632850Y-116129520D01*
X130653893Y-116142132D01*
X130673599Y-116156747D01*
X130691777Y-116173223D01*
X130708253Y-116191401D01*
X130722868Y-116211107D01*
X130735480Y-116232150D01*
X130745970Y-116254329D01*
X130754235Y-116277428D01*
X130760196Y-116301227D01*
X130763796Y-116325495D01*
X130765000Y-116349999D01*
X130765000Y-117250001D01*
X130763796Y-117274505D01*
X130760196Y-117298773D01*
X130754235Y-117322572D01*
X130745970Y-117345671D01*
X130735480Y-117367850D01*
X130722868Y-117388893D01*
X130708253Y-117408599D01*
X130691777Y-117426777D01*
X130673599Y-117443253D01*
X130653893Y-117457868D01*
X130632850Y-117470480D01*
X130610671Y-117480970D01*
X130587572Y-117489235D01*
X130563773Y-117495196D01*
X130539505Y-117498796D01*
X130515001Y-117500000D01*
X129864999Y-117500000D01*
X129840495Y-117498796D01*
X129816227Y-117495196D01*
X129792428Y-117489235D01*
X129769329Y-117480970D01*
X129747150Y-117470480D01*
X129726107Y-117457868D01*
X129706401Y-117443253D01*
X129688223Y-117426777D01*
X129671747Y-117408599D01*
X129657132Y-117388893D01*
X129644520Y-117367850D01*
X129634030Y-117345671D01*
X129625765Y-117322572D01*
X129619804Y-117298773D01*
X129616204Y-117274505D01*
X129615000Y-117250001D01*
X129615000Y-116349999D01*
X129616204Y-116325495D01*
X129619804Y-116301227D01*
X129625765Y-116277428D01*
X129634030Y-116254329D01*
X129644520Y-116232150D01*
X129657132Y-116211107D01*
X129671747Y-116191401D01*
X129688223Y-116173223D01*
X129706401Y-116156747D01*
X129726107Y-116142132D01*
X129747150Y-116129520D01*
X129769329Y-116119030D01*
X129792428Y-116110765D01*
X129816227Y-116104804D01*
X129840495Y-116101204D01*
X129864999Y-116100000D01*
X130515001Y-116100000D01*
X130539505Y-116101204D01*
X130539505Y-116101204D01*
G37*
D25*
X130190000Y-116800000D03*
D20*
G36*
X192789505Y-90101204D02*
G01*
X192813773Y-90104804D01*
X192837572Y-90110765D01*
X192860671Y-90119030D01*
X192882850Y-90129520D01*
X192903893Y-90142132D01*
X192923599Y-90156747D01*
X192941777Y-90173223D01*
X192958253Y-90191401D01*
X192972868Y-90211107D01*
X192985480Y-90232150D01*
X192995970Y-90254329D01*
X193004235Y-90277428D01*
X193010196Y-90301227D01*
X193013796Y-90325495D01*
X193015000Y-90349999D01*
X193015000Y-91250001D01*
X193013796Y-91274505D01*
X193010196Y-91298773D01*
X193004235Y-91322572D01*
X192995970Y-91345671D01*
X192985480Y-91367850D01*
X192972868Y-91388893D01*
X192958253Y-91408599D01*
X192941777Y-91426777D01*
X192923599Y-91443253D01*
X192903893Y-91457868D01*
X192882850Y-91470480D01*
X192860671Y-91480970D01*
X192837572Y-91489235D01*
X192813773Y-91495196D01*
X192789505Y-91498796D01*
X192765001Y-91500000D01*
X192114999Y-91500000D01*
X192090495Y-91498796D01*
X192066227Y-91495196D01*
X192042428Y-91489235D01*
X192019329Y-91480970D01*
X191997150Y-91470480D01*
X191976107Y-91457868D01*
X191956401Y-91443253D01*
X191938223Y-91426777D01*
X191921747Y-91408599D01*
X191907132Y-91388893D01*
X191894520Y-91367850D01*
X191884030Y-91345671D01*
X191875765Y-91322572D01*
X191869804Y-91298773D01*
X191866204Y-91274505D01*
X191865000Y-91250001D01*
X191865000Y-90349999D01*
X191866204Y-90325495D01*
X191869804Y-90301227D01*
X191875765Y-90277428D01*
X191884030Y-90254329D01*
X191894520Y-90232150D01*
X191907132Y-90211107D01*
X191921747Y-90191401D01*
X191938223Y-90173223D01*
X191956401Y-90156747D01*
X191976107Y-90142132D01*
X191997150Y-90129520D01*
X192019329Y-90119030D01*
X192042428Y-90110765D01*
X192066227Y-90104804D01*
X192090495Y-90101204D01*
X192114999Y-90100000D01*
X192765001Y-90100000D01*
X192789505Y-90101204D01*
X192789505Y-90101204D01*
G37*
D25*
X192440000Y-90800000D03*
D20*
G36*
X190739505Y-90101204D02*
G01*
X190763773Y-90104804D01*
X190787572Y-90110765D01*
X190810671Y-90119030D01*
X190832850Y-90129520D01*
X190853893Y-90142132D01*
X190873599Y-90156747D01*
X190891777Y-90173223D01*
X190908253Y-90191401D01*
X190922868Y-90211107D01*
X190935480Y-90232150D01*
X190945970Y-90254329D01*
X190954235Y-90277428D01*
X190960196Y-90301227D01*
X190963796Y-90325495D01*
X190965000Y-90349999D01*
X190965000Y-91250001D01*
X190963796Y-91274505D01*
X190960196Y-91298773D01*
X190954235Y-91322572D01*
X190945970Y-91345671D01*
X190935480Y-91367850D01*
X190922868Y-91388893D01*
X190908253Y-91408599D01*
X190891777Y-91426777D01*
X190873599Y-91443253D01*
X190853893Y-91457868D01*
X190832850Y-91470480D01*
X190810671Y-91480970D01*
X190787572Y-91489235D01*
X190763773Y-91495196D01*
X190739505Y-91498796D01*
X190715001Y-91500000D01*
X190064999Y-91500000D01*
X190040495Y-91498796D01*
X190016227Y-91495196D01*
X189992428Y-91489235D01*
X189969329Y-91480970D01*
X189947150Y-91470480D01*
X189926107Y-91457868D01*
X189906401Y-91443253D01*
X189888223Y-91426777D01*
X189871747Y-91408599D01*
X189857132Y-91388893D01*
X189844520Y-91367850D01*
X189834030Y-91345671D01*
X189825765Y-91322572D01*
X189819804Y-91298773D01*
X189816204Y-91274505D01*
X189815000Y-91250001D01*
X189815000Y-90349999D01*
X189816204Y-90325495D01*
X189819804Y-90301227D01*
X189825765Y-90277428D01*
X189834030Y-90254329D01*
X189844520Y-90232150D01*
X189857132Y-90211107D01*
X189871747Y-90191401D01*
X189888223Y-90173223D01*
X189906401Y-90156747D01*
X189926107Y-90142132D01*
X189947150Y-90129520D01*
X189969329Y-90119030D01*
X189992428Y-90110765D01*
X190016227Y-90104804D01*
X190040495Y-90101204D01*
X190064999Y-90100000D01*
X190715001Y-90100000D01*
X190739505Y-90101204D01*
X190739505Y-90101204D01*
G37*
D25*
X190390000Y-90800000D03*
D20*
G36*
X152214505Y-130301204D02*
G01*
X152238773Y-130304804D01*
X152262572Y-130310765D01*
X152285671Y-130319030D01*
X152307850Y-130329520D01*
X152328893Y-130342132D01*
X152348599Y-130356747D01*
X152366777Y-130373223D01*
X152383253Y-130391401D01*
X152397868Y-130411107D01*
X152410480Y-130432150D01*
X152420970Y-130454329D01*
X152429235Y-130477428D01*
X152435196Y-130501227D01*
X152438796Y-130525495D01*
X152440000Y-130549999D01*
X152440000Y-131200001D01*
X152438796Y-131224505D01*
X152435196Y-131248773D01*
X152429235Y-131272572D01*
X152420970Y-131295671D01*
X152410480Y-131317850D01*
X152397868Y-131338893D01*
X152383253Y-131358599D01*
X152366777Y-131376777D01*
X152348599Y-131393253D01*
X152328893Y-131407868D01*
X152307850Y-131420480D01*
X152285671Y-131430970D01*
X152262572Y-131439235D01*
X152238773Y-131445196D01*
X152214505Y-131448796D01*
X152190001Y-131450000D01*
X151289999Y-131450000D01*
X151265495Y-131448796D01*
X151241227Y-131445196D01*
X151217428Y-131439235D01*
X151194329Y-131430970D01*
X151172150Y-131420480D01*
X151151107Y-131407868D01*
X151131401Y-131393253D01*
X151113223Y-131376777D01*
X151096747Y-131358599D01*
X151082132Y-131338893D01*
X151069520Y-131317850D01*
X151059030Y-131295671D01*
X151050765Y-131272572D01*
X151044804Y-131248773D01*
X151041204Y-131224505D01*
X151040000Y-131200001D01*
X151040000Y-130549999D01*
X151041204Y-130525495D01*
X151044804Y-130501227D01*
X151050765Y-130477428D01*
X151059030Y-130454329D01*
X151069520Y-130432150D01*
X151082132Y-130411107D01*
X151096747Y-130391401D01*
X151113223Y-130373223D01*
X151131401Y-130356747D01*
X151151107Y-130342132D01*
X151172150Y-130329520D01*
X151194329Y-130319030D01*
X151217428Y-130310765D01*
X151241227Y-130304804D01*
X151265495Y-130301204D01*
X151289999Y-130300000D01*
X152190001Y-130300000D01*
X152214505Y-130301204D01*
X152214505Y-130301204D01*
G37*
D25*
X151740000Y-130875000D03*
D20*
G36*
X152214505Y-132351204D02*
G01*
X152238773Y-132354804D01*
X152262572Y-132360765D01*
X152285671Y-132369030D01*
X152307850Y-132379520D01*
X152328893Y-132392132D01*
X152348599Y-132406747D01*
X152366777Y-132423223D01*
X152383253Y-132441401D01*
X152397868Y-132461107D01*
X152410480Y-132482150D01*
X152420970Y-132504329D01*
X152429235Y-132527428D01*
X152435196Y-132551227D01*
X152438796Y-132575495D01*
X152440000Y-132599999D01*
X152440000Y-133250001D01*
X152438796Y-133274505D01*
X152435196Y-133298773D01*
X152429235Y-133322572D01*
X152420970Y-133345671D01*
X152410480Y-133367850D01*
X152397868Y-133388893D01*
X152383253Y-133408599D01*
X152366777Y-133426777D01*
X152348599Y-133443253D01*
X152328893Y-133457868D01*
X152307850Y-133470480D01*
X152285671Y-133480970D01*
X152262572Y-133489235D01*
X152238773Y-133495196D01*
X152214505Y-133498796D01*
X152190001Y-133500000D01*
X151289999Y-133500000D01*
X151265495Y-133498796D01*
X151241227Y-133495196D01*
X151217428Y-133489235D01*
X151194329Y-133480970D01*
X151172150Y-133470480D01*
X151151107Y-133457868D01*
X151131401Y-133443253D01*
X151113223Y-133426777D01*
X151096747Y-133408599D01*
X151082132Y-133388893D01*
X151069520Y-133367850D01*
X151059030Y-133345671D01*
X151050765Y-133322572D01*
X151044804Y-133298773D01*
X151041204Y-133274505D01*
X151040000Y-133250001D01*
X151040000Y-132599999D01*
X151041204Y-132575495D01*
X151044804Y-132551227D01*
X151050765Y-132527428D01*
X151059030Y-132504329D01*
X151069520Y-132482150D01*
X151082132Y-132461107D01*
X151096747Y-132441401D01*
X151113223Y-132423223D01*
X151131401Y-132406747D01*
X151151107Y-132392132D01*
X151172150Y-132379520D01*
X151194329Y-132369030D01*
X151217428Y-132360765D01*
X151241227Y-132354804D01*
X151265495Y-132351204D01*
X151289999Y-132350000D01*
X152190001Y-132350000D01*
X152214505Y-132351204D01*
X152214505Y-132351204D01*
G37*
D25*
X151740000Y-132925000D03*
D20*
G36*
X127814505Y-129926204D02*
G01*
X127838773Y-129929804D01*
X127862572Y-129935765D01*
X127885671Y-129944030D01*
X127907850Y-129954520D01*
X127928893Y-129967132D01*
X127948599Y-129981747D01*
X127966777Y-129998223D01*
X127983253Y-130016401D01*
X127997868Y-130036107D01*
X128010480Y-130057150D01*
X128020970Y-130079329D01*
X128029235Y-130102428D01*
X128035196Y-130126227D01*
X128038796Y-130150495D01*
X128040000Y-130174999D01*
X128040000Y-130825001D01*
X128038796Y-130849505D01*
X128035196Y-130873773D01*
X128029235Y-130897572D01*
X128020970Y-130920671D01*
X128010480Y-130942850D01*
X127997868Y-130963893D01*
X127983253Y-130983599D01*
X127966777Y-131001777D01*
X127948599Y-131018253D01*
X127928893Y-131032868D01*
X127907850Y-131045480D01*
X127885671Y-131055970D01*
X127862572Y-131064235D01*
X127838773Y-131070196D01*
X127814505Y-131073796D01*
X127790001Y-131075000D01*
X126889999Y-131075000D01*
X126865495Y-131073796D01*
X126841227Y-131070196D01*
X126817428Y-131064235D01*
X126794329Y-131055970D01*
X126772150Y-131045480D01*
X126751107Y-131032868D01*
X126731401Y-131018253D01*
X126713223Y-131001777D01*
X126696747Y-130983599D01*
X126682132Y-130963893D01*
X126669520Y-130942850D01*
X126659030Y-130920671D01*
X126650765Y-130897572D01*
X126644804Y-130873773D01*
X126641204Y-130849505D01*
X126640000Y-130825001D01*
X126640000Y-130174999D01*
X126641204Y-130150495D01*
X126644804Y-130126227D01*
X126650765Y-130102428D01*
X126659030Y-130079329D01*
X126669520Y-130057150D01*
X126682132Y-130036107D01*
X126696747Y-130016401D01*
X126713223Y-129998223D01*
X126731401Y-129981747D01*
X126751107Y-129967132D01*
X126772150Y-129954520D01*
X126794329Y-129944030D01*
X126817428Y-129935765D01*
X126841227Y-129929804D01*
X126865495Y-129926204D01*
X126889999Y-129925000D01*
X127790001Y-129925000D01*
X127814505Y-129926204D01*
X127814505Y-129926204D01*
G37*
D25*
X127340000Y-130500000D03*
D20*
G36*
X127814505Y-131976204D02*
G01*
X127838773Y-131979804D01*
X127862572Y-131985765D01*
X127885671Y-131994030D01*
X127907850Y-132004520D01*
X127928893Y-132017132D01*
X127948599Y-132031747D01*
X127966777Y-132048223D01*
X127983253Y-132066401D01*
X127997868Y-132086107D01*
X128010480Y-132107150D01*
X128020970Y-132129329D01*
X128029235Y-132152428D01*
X128035196Y-132176227D01*
X128038796Y-132200495D01*
X128040000Y-132224999D01*
X128040000Y-132875001D01*
X128038796Y-132899505D01*
X128035196Y-132923773D01*
X128029235Y-132947572D01*
X128020970Y-132970671D01*
X128010480Y-132992850D01*
X127997868Y-133013893D01*
X127983253Y-133033599D01*
X127966777Y-133051777D01*
X127948599Y-133068253D01*
X127928893Y-133082868D01*
X127907850Y-133095480D01*
X127885671Y-133105970D01*
X127862572Y-133114235D01*
X127838773Y-133120196D01*
X127814505Y-133123796D01*
X127790001Y-133125000D01*
X126889999Y-133125000D01*
X126865495Y-133123796D01*
X126841227Y-133120196D01*
X126817428Y-133114235D01*
X126794329Y-133105970D01*
X126772150Y-133095480D01*
X126751107Y-133082868D01*
X126731401Y-133068253D01*
X126713223Y-133051777D01*
X126696747Y-133033599D01*
X126682132Y-133013893D01*
X126669520Y-132992850D01*
X126659030Y-132970671D01*
X126650765Y-132947572D01*
X126644804Y-132923773D01*
X126641204Y-132899505D01*
X126640000Y-132875001D01*
X126640000Y-132224999D01*
X126641204Y-132200495D01*
X126644804Y-132176227D01*
X126650765Y-132152428D01*
X126659030Y-132129329D01*
X126669520Y-132107150D01*
X126682132Y-132086107D01*
X126696747Y-132066401D01*
X126713223Y-132048223D01*
X126731401Y-132031747D01*
X126751107Y-132017132D01*
X126772150Y-132004520D01*
X126794329Y-131994030D01*
X126817428Y-131985765D01*
X126841227Y-131979804D01*
X126865495Y-131976204D01*
X126889999Y-131975000D01*
X127790001Y-131975000D01*
X127814505Y-131976204D01*
X127814505Y-131976204D01*
G37*
D25*
X127340000Y-132550000D03*
D20*
G36*
X100839505Y-108301204D02*
G01*
X100863773Y-108304804D01*
X100887572Y-108310765D01*
X100910671Y-108319030D01*
X100932850Y-108329520D01*
X100953893Y-108342132D01*
X100973599Y-108356747D01*
X100991777Y-108373223D01*
X101008253Y-108391401D01*
X101022868Y-108411107D01*
X101035480Y-108432150D01*
X101045970Y-108454329D01*
X101054235Y-108477428D01*
X101060196Y-108501227D01*
X101063796Y-108525495D01*
X101065000Y-108549999D01*
X101065000Y-109450001D01*
X101063796Y-109474505D01*
X101060196Y-109498773D01*
X101054235Y-109522572D01*
X101045970Y-109545671D01*
X101035480Y-109567850D01*
X101022868Y-109588893D01*
X101008253Y-109608599D01*
X100991777Y-109626777D01*
X100973599Y-109643253D01*
X100953893Y-109657868D01*
X100932850Y-109670480D01*
X100910671Y-109680970D01*
X100887572Y-109689235D01*
X100863773Y-109695196D01*
X100839505Y-109698796D01*
X100815001Y-109700000D01*
X100164999Y-109700000D01*
X100140495Y-109698796D01*
X100116227Y-109695196D01*
X100092428Y-109689235D01*
X100069329Y-109680970D01*
X100047150Y-109670480D01*
X100026107Y-109657868D01*
X100006401Y-109643253D01*
X99988223Y-109626777D01*
X99971747Y-109608599D01*
X99957132Y-109588893D01*
X99944520Y-109567850D01*
X99934030Y-109545671D01*
X99925765Y-109522572D01*
X99919804Y-109498773D01*
X99916204Y-109474505D01*
X99915000Y-109450001D01*
X99915000Y-108549999D01*
X99916204Y-108525495D01*
X99919804Y-108501227D01*
X99925765Y-108477428D01*
X99934030Y-108454329D01*
X99944520Y-108432150D01*
X99957132Y-108411107D01*
X99971747Y-108391401D01*
X99988223Y-108373223D01*
X100006401Y-108356747D01*
X100026107Y-108342132D01*
X100047150Y-108329520D01*
X100069329Y-108319030D01*
X100092428Y-108310765D01*
X100116227Y-108304804D01*
X100140495Y-108301204D01*
X100164999Y-108300000D01*
X100815001Y-108300000D01*
X100839505Y-108301204D01*
X100839505Y-108301204D01*
G37*
D25*
X100490000Y-109000000D03*
D20*
G36*
X98789505Y-108301204D02*
G01*
X98813773Y-108304804D01*
X98837572Y-108310765D01*
X98860671Y-108319030D01*
X98882850Y-108329520D01*
X98903893Y-108342132D01*
X98923599Y-108356747D01*
X98941777Y-108373223D01*
X98958253Y-108391401D01*
X98972868Y-108411107D01*
X98985480Y-108432150D01*
X98995970Y-108454329D01*
X99004235Y-108477428D01*
X99010196Y-108501227D01*
X99013796Y-108525495D01*
X99015000Y-108549999D01*
X99015000Y-109450001D01*
X99013796Y-109474505D01*
X99010196Y-109498773D01*
X99004235Y-109522572D01*
X98995970Y-109545671D01*
X98985480Y-109567850D01*
X98972868Y-109588893D01*
X98958253Y-109608599D01*
X98941777Y-109626777D01*
X98923599Y-109643253D01*
X98903893Y-109657868D01*
X98882850Y-109670480D01*
X98860671Y-109680970D01*
X98837572Y-109689235D01*
X98813773Y-109695196D01*
X98789505Y-109698796D01*
X98765001Y-109700000D01*
X98114999Y-109700000D01*
X98090495Y-109698796D01*
X98066227Y-109695196D01*
X98042428Y-109689235D01*
X98019329Y-109680970D01*
X97997150Y-109670480D01*
X97976107Y-109657868D01*
X97956401Y-109643253D01*
X97938223Y-109626777D01*
X97921747Y-109608599D01*
X97907132Y-109588893D01*
X97894520Y-109567850D01*
X97884030Y-109545671D01*
X97875765Y-109522572D01*
X97869804Y-109498773D01*
X97866204Y-109474505D01*
X97865000Y-109450001D01*
X97865000Y-108549999D01*
X97866204Y-108525495D01*
X97869804Y-108501227D01*
X97875765Y-108477428D01*
X97884030Y-108454329D01*
X97894520Y-108432150D01*
X97907132Y-108411107D01*
X97921747Y-108391401D01*
X97938223Y-108373223D01*
X97956401Y-108356747D01*
X97976107Y-108342132D01*
X97997150Y-108329520D01*
X98019329Y-108319030D01*
X98042428Y-108310765D01*
X98066227Y-108304804D01*
X98090495Y-108301204D01*
X98114999Y-108300000D01*
X98765001Y-108300000D01*
X98789505Y-108301204D01*
X98789505Y-108301204D01*
G37*
D25*
X98440000Y-109000000D03*
D20*
G36*
X128639505Y-91901204D02*
G01*
X128663773Y-91904804D01*
X128687572Y-91910765D01*
X128710671Y-91919030D01*
X128732850Y-91929520D01*
X128753893Y-91942132D01*
X128773599Y-91956747D01*
X128791777Y-91973223D01*
X128808253Y-91991401D01*
X128822868Y-92011107D01*
X128835480Y-92032150D01*
X128845970Y-92054329D01*
X128854235Y-92077428D01*
X128860196Y-92101227D01*
X128863796Y-92125495D01*
X128865000Y-92149999D01*
X128865000Y-93050001D01*
X128863796Y-93074505D01*
X128860196Y-93098773D01*
X128854235Y-93122572D01*
X128845970Y-93145671D01*
X128835480Y-93167850D01*
X128822868Y-93188893D01*
X128808253Y-93208599D01*
X128791777Y-93226777D01*
X128773599Y-93243253D01*
X128753893Y-93257868D01*
X128732850Y-93270480D01*
X128710671Y-93280970D01*
X128687572Y-93289235D01*
X128663773Y-93295196D01*
X128639505Y-93298796D01*
X128615001Y-93300000D01*
X127964999Y-93300000D01*
X127940495Y-93298796D01*
X127916227Y-93295196D01*
X127892428Y-93289235D01*
X127869329Y-93280970D01*
X127847150Y-93270480D01*
X127826107Y-93257868D01*
X127806401Y-93243253D01*
X127788223Y-93226777D01*
X127771747Y-93208599D01*
X127757132Y-93188893D01*
X127744520Y-93167850D01*
X127734030Y-93145671D01*
X127725765Y-93122572D01*
X127719804Y-93098773D01*
X127716204Y-93074505D01*
X127715000Y-93050001D01*
X127715000Y-92149999D01*
X127716204Y-92125495D01*
X127719804Y-92101227D01*
X127725765Y-92077428D01*
X127734030Y-92054329D01*
X127744520Y-92032150D01*
X127757132Y-92011107D01*
X127771747Y-91991401D01*
X127788223Y-91973223D01*
X127806401Y-91956747D01*
X127826107Y-91942132D01*
X127847150Y-91929520D01*
X127869329Y-91919030D01*
X127892428Y-91910765D01*
X127916227Y-91904804D01*
X127940495Y-91901204D01*
X127964999Y-91900000D01*
X128615001Y-91900000D01*
X128639505Y-91901204D01*
X128639505Y-91901204D01*
G37*
D25*
X128290000Y-92600000D03*
D20*
G36*
X126589505Y-91901204D02*
G01*
X126613773Y-91904804D01*
X126637572Y-91910765D01*
X126660671Y-91919030D01*
X126682850Y-91929520D01*
X126703893Y-91942132D01*
X126723599Y-91956747D01*
X126741777Y-91973223D01*
X126758253Y-91991401D01*
X126772868Y-92011107D01*
X126785480Y-92032150D01*
X126795970Y-92054329D01*
X126804235Y-92077428D01*
X126810196Y-92101227D01*
X126813796Y-92125495D01*
X126815000Y-92149999D01*
X126815000Y-93050001D01*
X126813796Y-93074505D01*
X126810196Y-93098773D01*
X126804235Y-93122572D01*
X126795970Y-93145671D01*
X126785480Y-93167850D01*
X126772868Y-93188893D01*
X126758253Y-93208599D01*
X126741777Y-93226777D01*
X126723599Y-93243253D01*
X126703893Y-93257868D01*
X126682850Y-93270480D01*
X126660671Y-93280970D01*
X126637572Y-93289235D01*
X126613773Y-93295196D01*
X126589505Y-93298796D01*
X126565001Y-93300000D01*
X125914999Y-93300000D01*
X125890495Y-93298796D01*
X125866227Y-93295196D01*
X125842428Y-93289235D01*
X125819329Y-93280970D01*
X125797150Y-93270480D01*
X125776107Y-93257868D01*
X125756401Y-93243253D01*
X125738223Y-93226777D01*
X125721747Y-93208599D01*
X125707132Y-93188893D01*
X125694520Y-93167850D01*
X125684030Y-93145671D01*
X125675765Y-93122572D01*
X125669804Y-93098773D01*
X125666204Y-93074505D01*
X125665000Y-93050001D01*
X125665000Y-92149999D01*
X125666204Y-92125495D01*
X125669804Y-92101227D01*
X125675765Y-92077428D01*
X125684030Y-92054329D01*
X125694520Y-92032150D01*
X125707132Y-92011107D01*
X125721747Y-91991401D01*
X125738223Y-91973223D01*
X125756401Y-91956747D01*
X125776107Y-91942132D01*
X125797150Y-91929520D01*
X125819329Y-91919030D01*
X125842428Y-91910765D01*
X125866227Y-91904804D01*
X125890495Y-91901204D01*
X125914999Y-91900000D01*
X126565001Y-91900000D01*
X126589505Y-91901204D01*
X126589505Y-91901204D01*
G37*
D25*
X126240000Y-92600000D03*
D20*
G36*
X107764505Y-116001204D02*
G01*
X107788773Y-116004804D01*
X107812572Y-116010765D01*
X107835671Y-116019030D01*
X107857850Y-116029520D01*
X107878893Y-116042132D01*
X107898599Y-116056747D01*
X107916777Y-116073223D01*
X107933253Y-116091401D01*
X107947868Y-116111107D01*
X107960480Y-116132150D01*
X107970970Y-116154329D01*
X107979235Y-116177428D01*
X107985196Y-116201227D01*
X107988796Y-116225495D01*
X107990000Y-116249999D01*
X107990000Y-117150001D01*
X107988796Y-117174505D01*
X107985196Y-117198773D01*
X107979235Y-117222572D01*
X107970970Y-117245671D01*
X107960480Y-117267850D01*
X107947868Y-117288893D01*
X107933253Y-117308599D01*
X107916777Y-117326777D01*
X107898599Y-117343253D01*
X107878893Y-117357868D01*
X107857850Y-117370480D01*
X107835671Y-117380970D01*
X107812572Y-117389235D01*
X107788773Y-117395196D01*
X107764505Y-117398796D01*
X107740001Y-117400000D01*
X107089999Y-117400000D01*
X107065495Y-117398796D01*
X107041227Y-117395196D01*
X107017428Y-117389235D01*
X106994329Y-117380970D01*
X106972150Y-117370480D01*
X106951107Y-117357868D01*
X106931401Y-117343253D01*
X106913223Y-117326777D01*
X106896747Y-117308599D01*
X106882132Y-117288893D01*
X106869520Y-117267850D01*
X106859030Y-117245671D01*
X106850765Y-117222572D01*
X106844804Y-117198773D01*
X106841204Y-117174505D01*
X106840000Y-117150001D01*
X106840000Y-116249999D01*
X106841204Y-116225495D01*
X106844804Y-116201227D01*
X106850765Y-116177428D01*
X106859030Y-116154329D01*
X106869520Y-116132150D01*
X106882132Y-116111107D01*
X106896747Y-116091401D01*
X106913223Y-116073223D01*
X106931401Y-116056747D01*
X106951107Y-116042132D01*
X106972150Y-116029520D01*
X106994329Y-116019030D01*
X107017428Y-116010765D01*
X107041227Y-116004804D01*
X107065495Y-116001204D01*
X107089999Y-116000000D01*
X107740001Y-116000000D01*
X107764505Y-116001204D01*
X107764505Y-116001204D01*
G37*
D25*
X107415000Y-116700000D03*
D20*
G36*
X109814505Y-116001204D02*
G01*
X109838773Y-116004804D01*
X109862572Y-116010765D01*
X109885671Y-116019030D01*
X109907850Y-116029520D01*
X109928893Y-116042132D01*
X109948599Y-116056747D01*
X109966777Y-116073223D01*
X109983253Y-116091401D01*
X109997868Y-116111107D01*
X110010480Y-116132150D01*
X110020970Y-116154329D01*
X110029235Y-116177428D01*
X110035196Y-116201227D01*
X110038796Y-116225495D01*
X110040000Y-116249999D01*
X110040000Y-117150001D01*
X110038796Y-117174505D01*
X110035196Y-117198773D01*
X110029235Y-117222572D01*
X110020970Y-117245671D01*
X110010480Y-117267850D01*
X109997868Y-117288893D01*
X109983253Y-117308599D01*
X109966777Y-117326777D01*
X109948599Y-117343253D01*
X109928893Y-117357868D01*
X109907850Y-117370480D01*
X109885671Y-117380970D01*
X109862572Y-117389235D01*
X109838773Y-117395196D01*
X109814505Y-117398796D01*
X109790001Y-117400000D01*
X109139999Y-117400000D01*
X109115495Y-117398796D01*
X109091227Y-117395196D01*
X109067428Y-117389235D01*
X109044329Y-117380970D01*
X109022150Y-117370480D01*
X109001107Y-117357868D01*
X108981401Y-117343253D01*
X108963223Y-117326777D01*
X108946747Y-117308599D01*
X108932132Y-117288893D01*
X108919520Y-117267850D01*
X108909030Y-117245671D01*
X108900765Y-117222572D01*
X108894804Y-117198773D01*
X108891204Y-117174505D01*
X108890000Y-117150001D01*
X108890000Y-116249999D01*
X108891204Y-116225495D01*
X108894804Y-116201227D01*
X108900765Y-116177428D01*
X108909030Y-116154329D01*
X108919520Y-116132150D01*
X108932132Y-116111107D01*
X108946747Y-116091401D01*
X108963223Y-116073223D01*
X108981401Y-116056747D01*
X109001107Y-116042132D01*
X109022150Y-116029520D01*
X109044329Y-116019030D01*
X109067428Y-116010765D01*
X109091227Y-116004804D01*
X109115495Y-116001204D01*
X109139999Y-116000000D01*
X109790001Y-116000000D01*
X109814505Y-116001204D01*
X109814505Y-116001204D01*
G37*
D25*
X109465000Y-116700000D03*
D20*
G36*
X108839505Y-106061204D02*
G01*
X108863773Y-106064804D01*
X108887572Y-106070765D01*
X108910671Y-106079030D01*
X108932850Y-106089520D01*
X108953893Y-106102132D01*
X108973599Y-106116747D01*
X108991777Y-106133223D01*
X109008253Y-106151401D01*
X109022868Y-106171107D01*
X109035480Y-106192150D01*
X109045970Y-106214329D01*
X109054235Y-106237428D01*
X109060196Y-106261227D01*
X109063796Y-106285495D01*
X109065000Y-106309999D01*
X109065000Y-107210001D01*
X109063796Y-107234505D01*
X109060196Y-107258773D01*
X109054235Y-107282572D01*
X109045970Y-107305671D01*
X109035480Y-107327850D01*
X109022868Y-107348893D01*
X109008253Y-107368599D01*
X108991777Y-107386777D01*
X108973599Y-107403253D01*
X108953893Y-107417868D01*
X108932850Y-107430480D01*
X108910671Y-107440970D01*
X108887572Y-107449235D01*
X108863773Y-107455196D01*
X108839505Y-107458796D01*
X108815001Y-107460000D01*
X108164999Y-107460000D01*
X108140495Y-107458796D01*
X108116227Y-107455196D01*
X108092428Y-107449235D01*
X108069329Y-107440970D01*
X108047150Y-107430480D01*
X108026107Y-107417868D01*
X108006401Y-107403253D01*
X107988223Y-107386777D01*
X107971747Y-107368599D01*
X107957132Y-107348893D01*
X107944520Y-107327850D01*
X107934030Y-107305671D01*
X107925765Y-107282572D01*
X107919804Y-107258773D01*
X107916204Y-107234505D01*
X107915000Y-107210001D01*
X107915000Y-106309999D01*
X107916204Y-106285495D01*
X107919804Y-106261227D01*
X107925765Y-106237428D01*
X107934030Y-106214329D01*
X107944520Y-106192150D01*
X107957132Y-106171107D01*
X107971747Y-106151401D01*
X107988223Y-106133223D01*
X108006401Y-106116747D01*
X108026107Y-106102132D01*
X108047150Y-106089520D01*
X108069329Y-106079030D01*
X108092428Y-106070765D01*
X108116227Y-106064804D01*
X108140495Y-106061204D01*
X108164999Y-106060000D01*
X108815001Y-106060000D01*
X108839505Y-106061204D01*
X108839505Y-106061204D01*
G37*
D25*
X108490000Y-106760000D03*
D20*
G36*
X106789505Y-106061204D02*
G01*
X106813773Y-106064804D01*
X106837572Y-106070765D01*
X106860671Y-106079030D01*
X106882850Y-106089520D01*
X106903893Y-106102132D01*
X106923599Y-106116747D01*
X106941777Y-106133223D01*
X106958253Y-106151401D01*
X106972868Y-106171107D01*
X106985480Y-106192150D01*
X106995970Y-106214329D01*
X107004235Y-106237428D01*
X107010196Y-106261227D01*
X107013796Y-106285495D01*
X107015000Y-106309999D01*
X107015000Y-107210001D01*
X107013796Y-107234505D01*
X107010196Y-107258773D01*
X107004235Y-107282572D01*
X106995970Y-107305671D01*
X106985480Y-107327850D01*
X106972868Y-107348893D01*
X106958253Y-107368599D01*
X106941777Y-107386777D01*
X106923599Y-107403253D01*
X106903893Y-107417868D01*
X106882850Y-107430480D01*
X106860671Y-107440970D01*
X106837572Y-107449235D01*
X106813773Y-107455196D01*
X106789505Y-107458796D01*
X106765001Y-107460000D01*
X106114999Y-107460000D01*
X106090495Y-107458796D01*
X106066227Y-107455196D01*
X106042428Y-107449235D01*
X106019329Y-107440970D01*
X105997150Y-107430480D01*
X105976107Y-107417868D01*
X105956401Y-107403253D01*
X105938223Y-107386777D01*
X105921747Y-107368599D01*
X105907132Y-107348893D01*
X105894520Y-107327850D01*
X105884030Y-107305671D01*
X105875765Y-107282572D01*
X105869804Y-107258773D01*
X105866204Y-107234505D01*
X105865000Y-107210001D01*
X105865000Y-106309999D01*
X105866204Y-106285495D01*
X105869804Y-106261227D01*
X105875765Y-106237428D01*
X105884030Y-106214329D01*
X105894520Y-106192150D01*
X105907132Y-106171107D01*
X105921747Y-106151401D01*
X105938223Y-106133223D01*
X105956401Y-106116747D01*
X105976107Y-106102132D01*
X105997150Y-106089520D01*
X106019329Y-106079030D01*
X106042428Y-106070765D01*
X106066227Y-106064804D01*
X106090495Y-106061204D01*
X106114999Y-106060000D01*
X106765001Y-106060000D01*
X106789505Y-106061204D01*
X106789505Y-106061204D01*
G37*
D25*
X106440000Y-106760000D03*
D20*
G36*
X165239505Y-118601204D02*
G01*
X165263773Y-118604804D01*
X165287572Y-118610765D01*
X165310671Y-118619030D01*
X165332850Y-118629520D01*
X165353893Y-118642132D01*
X165373599Y-118656747D01*
X165391777Y-118673223D01*
X165408253Y-118691401D01*
X165422868Y-118711107D01*
X165435480Y-118732150D01*
X165445970Y-118754329D01*
X165454235Y-118777428D01*
X165460196Y-118801227D01*
X165463796Y-118825495D01*
X165465000Y-118849999D01*
X165465000Y-119750001D01*
X165463796Y-119774505D01*
X165460196Y-119798773D01*
X165454235Y-119822572D01*
X165445970Y-119845671D01*
X165435480Y-119867850D01*
X165422868Y-119888893D01*
X165408253Y-119908599D01*
X165391777Y-119926777D01*
X165373599Y-119943253D01*
X165353893Y-119957868D01*
X165332850Y-119970480D01*
X165310671Y-119980970D01*
X165287572Y-119989235D01*
X165263773Y-119995196D01*
X165239505Y-119998796D01*
X165215001Y-120000000D01*
X164564999Y-120000000D01*
X164540495Y-119998796D01*
X164516227Y-119995196D01*
X164492428Y-119989235D01*
X164469329Y-119980970D01*
X164447150Y-119970480D01*
X164426107Y-119957868D01*
X164406401Y-119943253D01*
X164388223Y-119926777D01*
X164371747Y-119908599D01*
X164357132Y-119888893D01*
X164344520Y-119867850D01*
X164334030Y-119845671D01*
X164325765Y-119822572D01*
X164319804Y-119798773D01*
X164316204Y-119774505D01*
X164315000Y-119750001D01*
X164315000Y-118849999D01*
X164316204Y-118825495D01*
X164319804Y-118801227D01*
X164325765Y-118777428D01*
X164334030Y-118754329D01*
X164344520Y-118732150D01*
X164357132Y-118711107D01*
X164371747Y-118691401D01*
X164388223Y-118673223D01*
X164406401Y-118656747D01*
X164426107Y-118642132D01*
X164447150Y-118629520D01*
X164469329Y-118619030D01*
X164492428Y-118610765D01*
X164516227Y-118604804D01*
X164540495Y-118601204D01*
X164564999Y-118600000D01*
X165215001Y-118600000D01*
X165239505Y-118601204D01*
X165239505Y-118601204D01*
G37*
D25*
X164890000Y-119300000D03*
D20*
G36*
X163189505Y-118601204D02*
G01*
X163213773Y-118604804D01*
X163237572Y-118610765D01*
X163260671Y-118619030D01*
X163282850Y-118629520D01*
X163303893Y-118642132D01*
X163323599Y-118656747D01*
X163341777Y-118673223D01*
X163358253Y-118691401D01*
X163372868Y-118711107D01*
X163385480Y-118732150D01*
X163395970Y-118754329D01*
X163404235Y-118777428D01*
X163410196Y-118801227D01*
X163413796Y-118825495D01*
X163415000Y-118849999D01*
X163415000Y-119750001D01*
X163413796Y-119774505D01*
X163410196Y-119798773D01*
X163404235Y-119822572D01*
X163395970Y-119845671D01*
X163385480Y-119867850D01*
X163372868Y-119888893D01*
X163358253Y-119908599D01*
X163341777Y-119926777D01*
X163323599Y-119943253D01*
X163303893Y-119957868D01*
X163282850Y-119970480D01*
X163260671Y-119980970D01*
X163237572Y-119989235D01*
X163213773Y-119995196D01*
X163189505Y-119998796D01*
X163165001Y-120000000D01*
X162514999Y-120000000D01*
X162490495Y-119998796D01*
X162466227Y-119995196D01*
X162442428Y-119989235D01*
X162419329Y-119980970D01*
X162397150Y-119970480D01*
X162376107Y-119957868D01*
X162356401Y-119943253D01*
X162338223Y-119926777D01*
X162321747Y-119908599D01*
X162307132Y-119888893D01*
X162294520Y-119867850D01*
X162284030Y-119845671D01*
X162275765Y-119822572D01*
X162269804Y-119798773D01*
X162266204Y-119774505D01*
X162265000Y-119750001D01*
X162265000Y-118849999D01*
X162266204Y-118825495D01*
X162269804Y-118801227D01*
X162275765Y-118777428D01*
X162284030Y-118754329D01*
X162294520Y-118732150D01*
X162307132Y-118711107D01*
X162321747Y-118691401D01*
X162338223Y-118673223D01*
X162356401Y-118656747D01*
X162376107Y-118642132D01*
X162397150Y-118629520D01*
X162419329Y-118619030D01*
X162442428Y-118610765D01*
X162466227Y-118604804D01*
X162490495Y-118601204D01*
X162514999Y-118600000D01*
X163165001Y-118600000D01*
X163189505Y-118601204D01*
X163189505Y-118601204D01*
G37*
D25*
X162840000Y-119300000D03*
D20*
G36*
X174614505Y-118801204D02*
G01*
X174638773Y-118804804D01*
X174662572Y-118810765D01*
X174685671Y-118819030D01*
X174707850Y-118829520D01*
X174728893Y-118842132D01*
X174748599Y-118856747D01*
X174766777Y-118873223D01*
X174783253Y-118891401D01*
X174797868Y-118911107D01*
X174810480Y-118932150D01*
X174820970Y-118954329D01*
X174829235Y-118977428D01*
X174835196Y-119001227D01*
X174838796Y-119025495D01*
X174840000Y-119049999D01*
X174840000Y-119950001D01*
X174838796Y-119974505D01*
X174835196Y-119998773D01*
X174829235Y-120022572D01*
X174820970Y-120045671D01*
X174810480Y-120067850D01*
X174797868Y-120088893D01*
X174783253Y-120108599D01*
X174766777Y-120126777D01*
X174748599Y-120143253D01*
X174728893Y-120157868D01*
X174707850Y-120170480D01*
X174685671Y-120180970D01*
X174662572Y-120189235D01*
X174638773Y-120195196D01*
X174614505Y-120198796D01*
X174590001Y-120200000D01*
X173939999Y-120200000D01*
X173915495Y-120198796D01*
X173891227Y-120195196D01*
X173867428Y-120189235D01*
X173844329Y-120180970D01*
X173822150Y-120170480D01*
X173801107Y-120157868D01*
X173781401Y-120143253D01*
X173763223Y-120126777D01*
X173746747Y-120108599D01*
X173732132Y-120088893D01*
X173719520Y-120067850D01*
X173709030Y-120045671D01*
X173700765Y-120022572D01*
X173694804Y-119998773D01*
X173691204Y-119974505D01*
X173690000Y-119950001D01*
X173690000Y-119049999D01*
X173691204Y-119025495D01*
X173694804Y-119001227D01*
X173700765Y-118977428D01*
X173709030Y-118954329D01*
X173719520Y-118932150D01*
X173732132Y-118911107D01*
X173746747Y-118891401D01*
X173763223Y-118873223D01*
X173781401Y-118856747D01*
X173801107Y-118842132D01*
X173822150Y-118829520D01*
X173844329Y-118819030D01*
X173867428Y-118810765D01*
X173891227Y-118804804D01*
X173915495Y-118801204D01*
X173939999Y-118800000D01*
X174590001Y-118800000D01*
X174614505Y-118801204D01*
X174614505Y-118801204D01*
G37*
D25*
X174265000Y-119500000D03*
D20*
G36*
X172564505Y-118801204D02*
G01*
X172588773Y-118804804D01*
X172612572Y-118810765D01*
X172635671Y-118819030D01*
X172657850Y-118829520D01*
X172678893Y-118842132D01*
X172698599Y-118856747D01*
X172716777Y-118873223D01*
X172733253Y-118891401D01*
X172747868Y-118911107D01*
X172760480Y-118932150D01*
X172770970Y-118954329D01*
X172779235Y-118977428D01*
X172785196Y-119001227D01*
X172788796Y-119025495D01*
X172790000Y-119049999D01*
X172790000Y-119950001D01*
X172788796Y-119974505D01*
X172785196Y-119998773D01*
X172779235Y-120022572D01*
X172770970Y-120045671D01*
X172760480Y-120067850D01*
X172747868Y-120088893D01*
X172733253Y-120108599D01*
X172716777Y-120126777D01*
X172698599Y-120143253D01*
X172678893Y-120157868D01*
X172657850Y-120170480D01*
X172635671Y-120180970D01*
X172612572Y-120189235D01*
X172588773Y-120195196D01*
X172564505Y-120198796D01*
X172540001Y-120200000D01*
X171889999Y-120200000D01*
X171865495Y-120198796D01*
X171841227Y-120195196D01*
X171817428Y-120189235D01*
X171794329Y-120180970D01*
X171772150Y-120170480D01*
X171751107Y-120157868D01*
X171731401Y-120143253D01*
X171713223Y-120126777D01*
X171696747Y-120108599D01*
X171682132Y-120088893D01*
X171669520Y-120067850D01*
X171659030Y-120045671D01*
X171650765Y-120022572D01*
X171644804Y-119998773D01*
X171641204Y-119974505D01*
X171640000Y-119950001D01*
X171640000Y-119049999D01*
X171641204Y-119025495D01*
X171644804Y-119001227D01*
X171650765Y-118977428D01*
X171659030Y-118954329D01*
X171669520Y-118932150D01*
X171682132Y-118911107D01*
X171696747Y-118891401D01*
X171713223Y-118873223D01*
X171731401Y-118856747D01*
X171751107Y-118842132D01*
X171772150Y-118829520D01*
X171794329Y-118819030D01*
X171817428Y-118810765D01*
X171841227Y-118804804D01*
X171865495Y-118801204D01*
X171889999Y-118800000D01*
X172540001Y-118800000D01*
X172564505Y-118801204D01*
X172564505Y-118801204D01*
G37*
D25*
X172215000Y-119500000D03*
D26*
X100740000Y-77900000D03*
X188340000Y-91000000D03*
X104940000Y-97900000D03*
X111440000Y-106800000D03*
X126140000Y-116700000D03*
X119040000Y-132600000D03*
X123740000Y-78100000D03*
X153640000Y-129500000D03*
X126440000Y-128400000D03*
X167840000Y-119200000D03*
X176440000Y-119500000D03*
D21*
X103340000Y-109300000D03*
D26*
X128540000Y-96800000D03*
X201740000Y-131100000D03*
X184240000Y-124800000D03*
D27*
X104840000Y-106500000D03*
X109920000Y-101680000D03*
D26*
X102340000Y-106525001D03*
X95540000Y-99800000D03*
X94040000Y-133100000D03*
X91440000Y-134200000D03*
X124840000Y-135100000D03*
X124840000Y-133100000D03*
X169640000Y-129300000D03*
X124540000Y-92400000D03*
X124540000Y-90224923D03*
X124540000Y-87926799D03*
X124540000Y-83576739D03*
X122540000Y-79825000D03*
X121840000Y-78175000D03*
X112740000Y-85800000D03*
X108840000Y-82600000D03*
X108640000Y-78175000D03*
X103340000Y-105325000D03*
X105289269Y-100950731D03*
D27*
X163804846Y-85964846D03*
X153240000Y-85999992D03*
X151139977Y-85985400D03*
X162550001Y-86689846D03*
X147142653Y-90102653D03*
X153040008Y-87820055D03*
X150945490Y-90176364D03*
X146557916Y-90913878D03*
X153040000Y-89199998D03*
X150939730Y-91176360D03*
X146040000Y-92000000D03*
X143315000Y-91000000D03*
X153040000Y-90400000D03*
X148040002Y-92000000D03*
X154040000Y-93400000D03*
X149040000Y-93400000D03*
X146240000Y-93000000D03*
X143315000Y-92800000D03*
X140640000Y-90400000D03*
X156439994Y-78600000D03*
X155552862Y-78138464D03*
X154558959Y-78248826D03*
X167240000Y-103300000D03*
X165789999Y-103400000D03*
X152440000Y-116400000D03*
X156840004Y-112600000D03*
X125440000Y-106100000D03*
X98140000Y-105900000D03*
X129352653Y-105225010D03*
X167237395Y-106700000D03*
X165040000Y-106600000D03*
X128352653Y-103787347D03*
X97840000Y-104600000D03*
X167240000Y-105400000D03*
X165140000Y-105400000D03*
X125313328Y-104948009D03*
X97540000Y-95500000D03*
X103008223Y-99459814D03*
X99340000Y-96100000D03*
X102240000Y-100100000D03*
X101140000Y-94600000D03*
X103740000Y-98700000D03*
X90599365Y-109004644D03*
X90965010Y-105200000D03*
X144017347Y-118177347D03*
X153337347Y-112397347D03*
X155040000Y-113800000D03*
X150440000Y-112400000D03*
X152440000Y-113100000D03*
X154815021Y-114900000D03*
X167240000Y-104300000D03*
X165240000Y-104400000D03*
X107540000Y-95000000D03*
X101040000Y-92000000D03*
X154440000Y-127700000D03*
X157840000Y-128000000D03*
X158039996Y-126900000D03*
X154714990Y-126499998D03*
X104840000Y-86200000D03*
X127640000Y-101800000D03*
X149240000Y-101800000D03*
X149240000Y-100252146D03*
X184840000Y-96600000D03*
X184840000Y-84425053D03*
D28*
X99265000Y-77900000D02*
X100740000Y-77900000D01*
X186765000Y-90900000D02*
X188240000Y-90900000D01*
X188240000Y-90900000D02*
X188340000Y-91000000D01*
X167965000Y-124845000D02*
X168200000Y-125080000D01*
X167965000Y-122500000D02*
X167965000Y-124845000D01*
X106440000Y-96600000D02*
X106240000Y-96600000D01*
X106240000Y-96600000D02*
X104940000Y-97900000D01*
X108490000Y-106760000D02*
X111400000Y-106760000D01*
X111400000Y-106760000D02*
X111440000Y-106800000D01*
X100490000Y-112660000D02*
X100640000Y-112810000D01*
X100490000Y-109000000D02*
X100490000Y-112660000D01*
X100640000Y-113680000D02*
X100640000Y-112810000D01*
X103036628Y-116076628D02*
X100640000Y-113680000D01*
X106791628Y-116076628D02*
X103036628Y-116076628D01*
X107415000Y-116700000D02*
X106791628Y-116076628D01*
X100955000Y-123160000D02*
X100640000Y-123160000D01*
X107415000Y-116700000D02*
X100955000Y-123160000D01*
X128240000Y-116700000D02*
X126440000Y-116700000D01*
X122140000Y-132525000D02*
X119115000Y-132525000D01*
X119115000Y-132525000D02*
X119040000Y-132600000D01*
X128270000Y-88900000D02*
X127635000Y-88265000D01*
X125715000Y-78000000D02*
X123840000Y-78000000D01*
X123840000Y-78000000D02*
X123740000Y-78100000D01*
X151740000Y-130875000D02*
X152265000Y-130875000D01*
X152265000Y-130875000D02*
X153640000Y-129500000D01*
X127340000Y-130500000D02*
X127340000Y-129300000D01*
X127340000Y-129300000D02*
X126440000Y-128400000D01*
X164890000Y-119300000D02*
X167740000Y-119300000D01*
X167740000Y-119300000D02*
X167840000Y-119200000D01*
X174265000Y-119500000D02*
X176440000Y-119500000D01*
X100490000Y-109000000D02*
X103040000Y-109000000D01*
X103040000Y-109000000D02*
X103340000Y-109300000D01*
X128290000Y-92600000D02*
X128290000Y-96550000D01*
X128290000Y-96550000D02*
X128540000Y-96800000D01*
X198640000Y-131050000D02*
X201690000Y-131050000D01*
X201690000Y-131050000D02*
X201740000Y-131100000D01*
X183915000Y-122500000D02*
X183915000Y-124475000D01*
X183915000Y-124475000D02*
X184240000Y-124800000D01*
X193860000Y-92795000D02*
X193860000Y-95245000D01*
X192165000Y-91100000D02*
X193860000Y-92795000D01*
D29*
X172720000Y-115120000D02*
X172540000Y-115300000D01*
X172720000Y-110490000D02*
X172720000Y-115120000D01*
X172540000Y-119175000D02*
X172215000Y-119500000D01*
X172540000Y-115300000D02*
X172540000Y-119175000D01*
X165370000Y-115300000D02*
X160665000Y-115300000D01*
X170180000Y-110490000D02*
X165370000Y-115300000D01*
X160665000Y-117125000D02*
X162840000Y-119300000D01*
X160665000Y-115300000D02*
X160665000Y-117125000D01*
X115060000Y-101680000D02*
X120140000Y-96600000D01*
X133080000Y-119920330D02*
X133080000Y-119980000D01*
X133205001Y-119795329D02*
X133080000Y-119920330D01*
X133205001Y-110239997D02*
X133205001Y-119795329D01*
X134530009Y-108914989D02*
X133205001Y-110239997D01*
X147320000Y-110490000D02*
X145744989Y-108914989D01*
X145744989Y-108914989D02*
X134530009Y-108914989D01*
X130454639Y-107400000D02*
X144230000Y-107400000D01*
X128627651Y-105087651D02*
X128627651Y-105573012D01*
X128627651Y-105573012D02*
X130454639Y-107400000D01*
X146520001Y-109690001D02*
X147320000Y-110490000D01*
X144230000Y-107400000D02*
X146520001Y-109690001D01*
X120140000Y-96600000D02*
X128627651Y-105087651D01*
X106440000Y-106760000D02*
X105100000Y-106760000D01*
X105100000Y-106760000D02*
X104840000Y-106500000D01*
X108490000Y-101680000D02*
X109920000Y-101680000D01*
X109920000Y-101680000D02*
X115060000Y-101680000D01*
X106440000Y-108600000D02*
X108240000Y-110400000D01*
X106440000Y-106760000D02*
X106440000Y-108600000D01*
D28*
X105575000Y-112810000D02*
X109465000Y-116700000D01*
X103180000Y-112810000D02*
X105575000Y-112810000D01*
X110140000Y-116700000D02*
X109465000Y-116700000D01*
X112490000Y-116700000D02*
X110140000Y-116700000D01*
X113040000Y-117250000D02*
X112490000Y-116700000D01*
X113040000Y-119500000D02*
X113040000Y-117250000D01*
X103451003Y-106525001D02*
X102340000Y-106525001D01*
X105290001Y-108363999D02*
X103451003Y-106525001D01*
X105290001Y-111724999D02*
X105290001Y-108363999D01*
X103180000Y-112810000D02*
X104205000Y-112810000D01*
X104205000Y-112810000D02*
X105290001Y-111724999D01*
X95160000Y-99800000D02*
X91940000Y-96580000D01*
X95540000Y-99800000D02*
X95160000Y-99800000D01*
X101620000Y-129160000D02*
X104160000Y-129160000D01*
X113040000Y-120280000D02*
X113040000Y-119500000D01*
X104160000Y-129160000D02*
X113040000Y-120280000D01*
X127765000Y-80515000D02*
X127635000Y-80645000D01*
X127765000Y-78000000D02*
X127765000Y-80515000D01*
X190115000Y-94264000D02*
X190109000Y-94270000D01*
X190115000Y-91100000D02*
X190115000Y-94264000D01*
X165915000Y-124825000D02*
X165660000Y-125080000D01*
X165915000Y-122500000D02*
X165915000Y-124825000D01*
X98100000Y-109340000D02*
X98440000Y-109000000D01*
X98100000Y-112810000D02*
X98100000Y-109340000D01*
X130190000Y-121270000D02*
X130220000Y-121300000D01*
X126320000Y-125200000D02*
X130220000Y-121300000D01*
X122140000Y-125200000D02*
X126320000Y-125200000D01*
X126240000Y-94490000D02*
X127000000Y-95250000D01*
X126240000Y-92600000D02*
X126240000Y-94490000D01*
X97215000Y-77900000D02*
X97215000Y-80585000D01*
X97215000Y-80585000D02*
X97155000Y-80645000D01*
X97389999Y-128310001D02*
X96540000Y-129160000D01*
X97389999Y-115415001D02*
X97389999Y-128310001D01*
X98100000Y-114705000D02*
X97389999Y-115415001D01*
X98100000Y-112810000D02*
X98100000Y-114705000D01*
X96540000Y-129160000D02*
X99080000Y-129160000D01*
X96540000Y-129160000D02*
X94040000Y-131660000D01*
X94040000Y-131660000D02*
X94040000Y-133100000D01*
X97215000Y-76825000D02*
X97215000Y-77900000D01*
X97340000Y-76700000D02*
X97215000Y-76825000D01*
X127765000Y-76875000D02*
X127765000Y-78000000D01*
X127940000Y-76700000D02*
X127765000Y-76875000D01*
X124840000Y-127900000D02*
X122140000Y-125200000D01*
X124840000Y-133100000D02*
X124840000Y-127900000D01*
X126240000Y-92600000D02*
X124740000Y-92600000D01*
X124740000Y-92600000D02*
X124540000Y-92400000D01*
X124540000Y-90224923D02*
X124540000Y-87926799D01*
X124540000Y-83576739D02*
X124540000Y-81825000D01*
X124540000Y-81825000D02*
X122540000Y-79825000D01*
X121840000Y-77000000D02*
X121540000Y-76700000D01*
X121840000Y-78175000D02*
X121840000Y-77000000D01*
X121540000Y-76700000D02*
X127940000Y-76700000D01*
X90140000Y-134200000D02*
X89340000Y-133400000D01*
X91440000Y-134200000D02*
X90140000Y-134200000D01*
X89340000Y-133400000D02*
X89340000Y-77886814D01*
X89340000Y-77886814D02*
X90526814Y-76700000D01*
X90526814Y-76700000D02*
X97340000Y-76700000D01*
X198640000Y-133100000D02*
X198640000Y-134700000D01*
X125240000Y-135500000D02*
X124840000Y-135100000D01*
X174640000Y-135300000D02*
X174440000Y-135500000D01*
X174440000Y-135500000D02*
X125240000Y-135500000D01*
X207040000Y-89800002D02*
X207139999Y-89900001D01*
X207140000Y-135700000D02*
X198640000Y-135700000D01*
X207040000Y-89800002D02*
X207140000Y-89900002D01*
X207140000Y-89900002D02*
X207140000Y-135700000D01*
X198640000Y-134700000D02*
X198640000Y-135700000D01*
X112740000Y-85800000D02*
X109540000Y-82600000D01*
X109540000Y-82600000D02*
X108840000Y-82600000D01*
X98440000Y-109000000D02*
X102115000Y-105325000D01*
X102115000Y-105325000D02*
X103340000Y-105325000D01*
X105710731Y-100950731D02*
X106440000Y-101680000D01*
X105289269Y-100950731D02*
X105710731Y-100950731D01*
X198540000Y-135600000D02*
X174840000Y-135600000D01*
X198640000Y-135700000D02*
X198540000Y-135600000D01*
X174840000Y-135600000D02*
X174640000Y-135400000D01*
X174640000Y-135400000D02*
X174640000Y-132209998D01*
X174640000Y-132209998D02*
X171730002Y-129300000D01*
X171730002Y-129300000D02*
X169640000Y-129300000D01*
X205440002Y-91400000D02*
X207040000Y-89800002D01*
X205440002Y-91340002D02*
X202300000Y-88200000D01*
X205440002Y-91400000D02*
X205440002Y-91340002D01*
X190079000Y-94300000D02*
X187660000Y-94300000D01*
X190115000Y-94264000D02*
X190079000Y-94300000D01*
X191020000Y-89600000D02*
X189640000Y-88220000D01*
X205440002Y-91400000D02*
X203640002Y-89600000D01*
X203640002Y-89600000D02*
X191020000Y-89600000D01*
X192120000Y-132880000D02*
X192120000Y-132820000D01*
X198640000Y-134700000D02*
X193940000Y-134700000D01*
X193940000Y-134700000D02*
X192120000Y-132880000D01*
X186670001Y-86969999D02*
X186940000Y-86700000D01*
X185849999Y-87790001D02*
X185849999Y-87619999D01*
X184785000Y-90830000D02*
X184785000Y-89470001D01*
X186940000Y-86700000D02*
X188150000Y-86700000D01*
X185849999Y-87619999D02*
X186499999Y-86969999D01*
X184715000Y-90900000D02*
X184785000Y-90830000D01*
X184785000Y-89470001D02*
X185160001Y-89470001D01*
X189186001Y-87736001D02*
X189865000Y-88415000D01*
X185160001Y-89470001D02*
X185810001Y-88820001D01*
X185810001Y-88820001D02*
X185810001Y-87829999D01*
X188150000Y-86700000D02*
X189186001Y-87736001D01*
X186499999Y-86969999D02*
X186670001Y-86969999D01*
X185810001Y-87829999D02*
X185849999Y-87790001D01*
X191020000Y-90170000D02*
X190390000Y-90800000D01*
X191020000Y-89600000D02*
X191020000Y-90170000D01*
X108640000Y-76800000D02*
X108540000Y-76700000D01*
X108640000Y-78175000D02*
X108640000Y-76800000D01*
X97340000Y-76700000D02*
X108540000Y-76700000D01*
X108540000Y-76700000D02*
X121540000Y-76700000D01*
X131240000Y-76400000D02*
X148246934Y-76400000D01*
X127940000Y-76700000D02*
X130940000Y-76700000D01*
X130940000Y-76700000D02*
X131240000Y-76400000D01*
X148246934Y-76400000D02*
X148617022Y-76029911D01*
X148617022Y-76029911D02*
X161119510Y-76029911D01*
X161119510Y-76029911D02*
X161489599Y-76400000D01*
X161489599Y-76400000D02*
X204740000Y-76400000D01*
X204740000Y-76400000D02*
X207040000Y-78700000D01*
X207040000Y-78700000D02*
X207040000Y-89800002D01*
X130540000Y-120970000D02*
X130240000Y-121270000D01*
X130190000Y-116800000D02*
X130540000Y-117150000D01*
X130540000Y-117150000D02*
X130540000Y-120970000D01*
D29*
X133690000Y-132550000D02*
X133940000Y-132300000D01*
X127340000Y-132550000D02*
X133690000Y-132550000D01*
X138940000Y-131300000D02*
X134940000Y-131300000D01*
X144905002Y-127600000D02*
X141905002Y-130600000D01*
X141905002Y-130600000D02*
X140240000Y-130600000D01*
X140240000Y-130600000D02*
X140040000Y-130800000D01*
X134940000Y-131300000D02*
X133940000Y-132300000D01*
X140040000Y-130800000D02*
X139440000Y-130800000D01*
X145780000Y-127600000D02*
X144905002Y-127600000D01*
X139440000Y-130800000D02*
X138940000Y-131300000D01*
X146440000Y-132925000D02*
X145815000Y-132300000D01*
X151740000Y-132925000D02*
X146440000Y-132925000D01*
X148320000Y-129795000D02*
X145815000Y-132300000D01*
X148320000Y-127600000D02*
X148320000Y-129795000D01*
X122140000Y-127925000D02*
X122140000Y-130475000D01*
X122140000Y-127250000D02*
X122140000Y-127925000D01*
X168779999Y-87094999D02*
X169860001Y-87094999D01*
X204740000Y-85900000D02*
X204740000Y-86060000D01*
X171280000Y-86060000D02*
X185690401Y-86060000D01*
X168194999Y-87679999D02*
X168779999Y-87094999D01*
X168194999Y-88279079D02*
X168194999Y-87679999D01*
X168140000Y-88334078D02*
X168194999Y-88279079D01*
X170052501Y-87287499D02*
X171280000Y-86060000D01*
X162560000Y-95250000D02*
X168140000Y-89670000D01*
X168140000Y-89670000D02*
X168140000Y-88334078D01*
X169860001Y-87094999D02*
X170052501Y-87287499D01*
X185690401Y-86060000D02*
X186075424Y-85674979D01*
X186075424Y-85674979D02*
X188574579Y-85674981D01*
X188574579Y-85674981D02*
X188959598Y-86060000D01*
X188959598Y-86060000D02*
X194580000Y-86060000D01*
X194580000Y-86060000D02*
X196155001Y-84484999D01*
X203324999Y-84484999D02*
X204740000Y-85900000D01*
X196155001Y-84484999D02*
X203324999Y-84484999D01*
X195040000Y-87000000D02*
X203140000Y-87000000D01*
X194589989Y-86549989D02*
X195040000Y-87000000D01*
X188813177Y-86549989D02*
X194589989Y-86549989D01*
X188388178Y-86124990D02*
X188813177Y-86549989D01*
X170734999Y-89615001D02*
X170734999Y-87679999D01*
X165100000Y-95250000D02*
X170734999Y-89615001D01*
X170734999Y-87679999D02*
X171865009Y-86549989D01*
X203140000Y-87000000D02*
X204740000Y-88600000D01*
X171865009Y-86549989D02*
X185836823Y-86549989D01*
X185836823Y-86549989D02*
X186261823Y-86124989D01*
X186261823Y-86124989D02*
X188388178Y-86124990D01*
X97090077Y-110784800D02*
X96790077Y-111084800D01*
X126685468Y-100400056D02*
X120485412Y-94200000D01*
X141294946Y-100400056D02*
X126685468Y-100400056D01*
X96790077Y-124409923D02*
X92889999Y-128310001D01*
X120485412Y-94200000D02*
X107035670Y-94200000D01*
X92889999Y-128310001D02*
X92040000Y-129160000D01*
X96790077Y-111084800D02*
X96790077Y-124409923D01*
X107035670Y-94200000D02*
X97090077Y-104145593D01*
X146578201Y-95116801D02*
X141294946Y-100400056D01*
X97090077Y-104145593D02*
X97090077Y-110784800D01*
X145240000Y-90980000D02*
X147955000Y-88265000D01*
X147320000Y-95250000D02*
X145240000Y-93170000D01*
X145240000Y-93170000D02*
X145240000Y-90980000D01*
X148160000Y-88500000D02*
X150674600Y-85985400D01*
X150674600Y-85985400D02*
X151139977Y-85985400D01*
X154290003Y-84949989D02*
X153639999Y-85599993D01*
X163804846Y-85964846D02*
X162461412Y-85964846D01*
X153639999Y-85599993D02*
X153240000Y-85999992D01*
X161446555Y-84949989D02*
X154290003Y-84949989D01*
X162461412Y-85964846D02*
X161446555Y-84949989D01*
X144780000Y-88900000D02*
X145415000Y-88265000D01*
X144780000Y-95250000D02*
X144780000Y-88900000D01*
X120853199Y-81483199D02*
X120015000Y-80645000D01*
X123771739Y-84401739D02*
X120853199Y-81483199D01*
X141551739Y-84401739D02*
X123771739Y-84401739D01*
X145415000Y-88265000D02*
X141551739Y-84401739D01*
X140154943Y-99875057D02*
X126796879Y-99875057D01*
X96640066Y-103959193D02*
X96640066Y-110598400D01*
X144780000Y-95250000D02*
X140154943Y-99875057D01*
X126796879Y-99875057D02*
X120671811Y-93749989D01*
X96340066Y-122319934D02*
X92889999Y-125770001D01*
X92889999Y-125770001D02*
X92040000Y-126620000D01*
X96340066Y-110898400D02*
X96340066Y-122319934D01*
X96640066Y-110598400D02*
X96340066Y-110898400D01*
X120671811Y-93749989D02*
X106849270Y-93749989D01*
X106849270Y-93749989D02*
X96640066Y-103959193D01*
X161260154Y-85399999D02*
X155460064Y-85399999D01*
X162550001Y-86689846D02*
X161260154Y-85399999D01*
X153440007Y-87420056D02*
X153040008Y-87820055D01*
X155460064Y-85399999D02*
X153440007Y-87420056D01*
X147142653Y-90102653D02*
X150871779Y-90102653D01*
X150871779Y-90102653D02*
X150945490Y-90176364D01*
X106662870Y-93299978D02*
X96190055Y-103772793D01*
X96190055Y-110412000D02*
X95789989Y-110812066D01*
X95789989Y-110812066D02*
X95789989Y-120330011D01*
X96190055Y-103772793D02*
X96190055Y-110412000D01*
X95789989Y-120330011D02*
X92889999Y-123230001D01*
X92889999Y-123230001D02*
X92040000Y-124080000D01*
X120858210Y-93299978D02*
X106662870Y-93299978D01*
X126983278Y-99425046D02*
X120858210Y-93299978D01*
X138064954Y-99425046D02*
X126983278Y-99425046D01*
X142240000Y-95250000D02*
X138064954Y-99425046D01*
X118313199Y-81483199D02*
X117475000Y-80645000D01*
X121681749Y-84851749D02*
X118313199Y-81483199D01*
X139461749Y-84851749D02*
X121681749Y-84851749D01*
X144040000Y-89430000D02*
X139461749Y-84851749D01*
X142240000Y-95250000D02*
X144040000Y-93450000D01*
X144040000Y-93450000D02*
X144040000Y-89430000D01*
X153439999Y-88799999D02*
X153040000Y-89199998D01*
X156389988Y-85850010D02*
X153439999Y-88799999D01*
X159330010Y-85850010D02*
X156389988Y-85850010D01*
X161700000Y-88220000D02*
X159330010Y-85850010D01*
X147123601Y-90913878D02*
X147162481Y-90874998D01*
X147162481Y-90874998D02*
X150638368Y-90874998D01*
X150638368Y-90874998D02*
X150939730Y-91176360D01*
X146557916Y-90913878D02*
X147123601Y-90913878D01*
X139700000Y-88900000D02*
X140335000Y-88265000D01*
X139700000Y-95250000D02*
X139700000Y-88900000D01*
X137371760Y-85301760D02*
X135468169Y-85301759D01*
X140335000Y-88265000D02*
X137371760Y-85301760D01*
X119591759Y-85301759D02*
X114935000Y-80645000D01*
X135468169Y-85301759D02*
X119591759Y-85301759D01*
X139700000Y-95250000D02*
X135974965Y-98975035D01*
X95740044Y-103586393D02*
X95740044Y-110225600D01*
X92889999Y-120690001D02*
X92040000Y-121540000D01*
X95339978Y-118240022D02*
X92889999Y-120690001D01*
X95339978Y-110625666D02*
X95339978Y-118240022D01*
X95740044Y-110225600D02*
X95339978Y-110625666D01*
X106476470Y-92849967D02*
X95740044Y-103586393D01*
X121044609Y-92849967D02*
X106476470Y-92849967D01*
X127169677Y-98975035D02*
X121044609Y-92849967D01*
X135974965Y-98975035D02*
X127169677Y-98975035D01*
X140815000Y-88500000D02*
X140540000Y-88500000D01*
X143315000Y-91000000D02*
X140815000Y-88500000D01*
X153605685Y-90400000D02*
X153040000Y-90400000D01*
X156980000Y-90400000D02*
X153605685Y-90400000D01*
X159160000Y-88220000D02*
X156980000Y-90400000D01*
X146040000Y-92000000D02*
X148040002Y-92000000D01*
X137160000Y-88900000D02*
X137795000Y-88265000D01*
X137160000Y-95250000D02*
X137160000Y-88900000D01*
X117501769Y-85751769D02*
X112395000Y-80645000D01*
X137795000Y-88265000D02*
X135281769Y-85751769D01*
X135281769Y-85751769D02*
X117501769Y-85751769D01*
X94889967Y-110439266D02*
X94889967Y-116150033D01*
X137160000Y-95250000D02*
X133884976Y-98525024D01*
X133884976Y-98525024D02*
X127356076Y-98525024D01*
X127356076Y-98525024D02*
X121231008Y-92399956D01*
X94889967Y-116150033D02*
X92889999Y-118150001D01*
X92889999Y-118150001D02*
X92040000Y-119000000D01*
X95290033Y-110039200D02*
X94889967Y-110439266D01*
X106290070Y-92399956D02*
X95290033Y-103399993D01*
X95290033Y-103399993D02*
X95290033Y-110039200D01*
X121231008Y-92399956D02*
X106290070Y-92399956D01*
X157745001Y-87094999D02*
X159700001Y-87094999D01*
X156620000Y-88220000D02*
X157745001Y-87094999D01*
X159700001Y-87094999D02*
X160285001Y-87679999D01*
X160285001Y-87679999D02*
X160285001Y-88760001D01*
X160285001Y-88760001D02*
X155645002Y-93400000D01*
X155645002Y-93400000D02*
X154040000Y-93400000D01*
X147165001Y-93925001D02*
X146240000Y-93000000D01*
X149040000Y-93400000D02*
X148514999Y-93925001D01*
X148514999Y-93925001D02*
X147165001Y-93925001D01*
X143315000Y-92800000D02*
X140915000Y-90400000D01*
X140915000Y-90400000D02*
X140640000Y-90400000D01*
X134620000Y-88900000D02*
X135255000Y-88265000D01*
X134620000Y-95250000D02*
X134620000Y-88900000D01*
X115411779Y-86201779D02*
X109855000Y-80645000D01*
X135255000Y-88265000D02*
X133191779Y-86201779D01*
X133191779Y-86201779D02*
X115411779Y-86201779D01*
X134620000Y-95250000D02*
X131794987Y-98075013D01*
X131794987Y-98075013D02*
X127542475Y-98075013D01*
X127542475Y-98075013D02*
X121417407Y-91949945D01*
X121417407Y-91949945D02*
X106103670Y-91949945D01*
X106103670Y-91949945D02*
X94840022Y-103213593D01*
X94840022Y-103213593D02*
X94840022Y-109852800D01*
X94840022Y-109852800D02*
X94439956Y-110252866D01*
X94439956Y-110252866D02*
X94439956Y-114060044D01*
X94439956Y-114060044D02*
X92889999Y-115610001D01*
X92889999Y-115610001D02*
X92040000Y-116460000D01*
X159160000Y-80600000D02*
X157160000Y-78600000D01*
X157160000Y-78600000D02*
X157005679Y-78600000D01*
X157005679Y-78600000D02*
X156439994Y-78600000D01*
X132080000Y-88900000D02*
X132715000Y-88265000D01*
X132080000Y-95250000D02*
X132080000Y-88900000D01*
X131101789Y-86651789D02*
X110091789Y-86651789D01*
X132715000Y-88265000D02*
X131101789Y-86651789D01*
X107315000Y-83875000D02*
X107315000Y-80645000D01*
X110091789Y-86651789D02*
X107315000Y-83875000D01*
X132080000Y-95250000D02*
X129704998Y-97625002D01*
X129704998Y-97625002D02*
X127728874Y-97625002D01*
X127728874Y-97625002D02*
X121603806Y-91499934D01*
X121603806Y-91499934D02*
X105917270Y-91499934D01*
X105917270Y-91499934D02*
X94390011Y-103027193D01*
X94390011Y-103027193D02*
X94390011Y-109666400D01*
X94390011Y-109666400D02*
X93989945Y-110066466D01*
X93989945Y-110066466D02*
X93989945Y-111970055D01*
X93989945Y-111970055D02*
X92889999Y-113070001D01*
X92889999Y-113070001D02*
X92040000Y-113920000D01*
X158838465Y-77738465D02*
X155952861Y-77738465D01*
X161700000Y-80600000D02*
X158838465Y-77738465D01*
X155952861Y-77738465D02*
X155552862Y-78138464D01*
X129540000Y-88900000D02*
X130175000Y-88265000D01*
X129540000Y-95250000D02*
X129540000Y-88900000D01*
X129011799Y-87101799D02*
X107341799Y-87101799D01*
X130175000Y-88265000D02*
X129011799Y-87101799D01*
X104775000Y-84535000D02*
X104775000Y-80645000D01*
X107341799Y-87101799D02*
X104775000Y-84535000D01*
X92889999Y-110530001D02*
X92040000Y-111380000D01*
X129540000Y-92261810D02*
X128328113Y-91049923D01*
X129540000Y-95250000D02*
X129540000Y-92261810D01*
X128328113Y-91049923D02*
X105730870Y-91049923D01*
X105730870Y-91049923D02*
X93940000Y-102840793D01*
X93940000Y-102840793D02*
X93940000Y-109480000D01*
X93940000Y-109480000D02*
X92889999Y-110530001D01*
X155042100Y-77200000D02*
X154558959Y-77683141D01*
X164240000Y-80600000D02*
X160840000Y-77200000D01*
X160840000Y-77200000D02*
X155042100Y-77200000D01*
X154558959Y-77683141D02*
X154558959Y-78248826D01*
X165100000Y-110490000D02*
X166040000Y-109550000D01*
X185615010Y-90124990D02*
X187325000Y-88415000D01*
X185615010Y-101524990D02*
X185615010Y-90124990D01*
X167240000Y-103300000D02*
X183840000Y-103300000D01*
X183840000Y-103300000D02*
X185615010Y-101524990D01*
X166040000Y-102584314D02*
X166040000Y-102500000D01*
X165789999Y-102834315D02*
X166040000Y-102584314D01*
X165789999Y-103400000D02*
X165789999Y-102834315D01*
X166040000Y-109550000D02*
X166040000Y-102500000D01*
X93115001Y-78320003D02*
X96599999Y-81805001D01*
X90240000Y-107040000D02*
X90240000Y-77800000D01*
X96599999Y-81805001D02*
X98554999Y-81805001D01*
X92040000Y-108840000D02*
X90240000Y-107040000D01*
X90540000Y-77500000D02*
X92925002Y-77500000D01*
X98554999Y-81805001D02*
X98880001Y-81479999D01*
X90240000Y-77800000D02*
X90540000Y-77500000D01*
X92925002Y-77500000D02*
X93115001Y-77689999D01*
X98880001Y-81479999D02*
X99680000Y-80680000D01*
X93115001Y-77689999D02*
X93115001Y-78320003D01*
X151864987Y-84024987D02*
X149845001Y-82005001D01*
X151664988Y-94320010D02*
X151664988Y-90265599D01*
X151664988Y-90265599D02*
X151864987Y-90065600D01*
X166040000Y-98300000D02*
X164540000Y-96800000D01*
X151740000Y-96800000D02*
X150985001Y-96045001D01*
X166040000Y-102500000D02*
X166040000Y-98300000D01*
X150985001Y-94999997D02*
X151664988Y-94320010D01*
X151864987Y-90065600D02*
X151864987Y-84024987D01*
X125126810Y-79000000D02*
X101360000Y-79000000D01*
X101360000Y-79000000D02*
X99680000Y-80680000D01*
X164540000Y-96800000D02*
X151740000Y-96800000D01*
X149845001Y-82005001D02*
X127299999Y-82005001D01*
X150985001Y-96045001D02*
X150985001Y-94999997D01*
X125126810Y-79831812D02*
X125126810Y-79000000D01*
X127299999Y-82005001D02*
X125126810Y-79831812D01*
X150240000Y-117000000D02*
X151840000Y-117000000D01*
X151840000Y-117000000D02*
X152440000Y-116400000D01*
X162990000Y-112600000D02*
X165100000Y-110490000D01*
X156840004Y-112600000D02*
X162990000Y-112600000D01*
X129918338Y-105225010D02*
X129352653Y-105225010D01*
X130843348Y-104300000D02*
X129918338Y-105225010D01*
X165040000Y-106600000D02*
X162740000Y-104300000D01*
X162740000Y-104300000D02*
X130843348Y-104300000D01*
X99540000Y-104500000D02*
X98140000Y-105900000D01*
X109798780Y-104505054D02*
X105131220Y-104505054D01*
X109803834Y-104500000D02*
X109798780Y-104505054D01*
X123840000Y-104500000D02*
X109803834Y-104500000D01*
X125440000Y-106100000D02*
X123840000Y-104500000D01*
X105126166Y-104500000D02*
X99540000Y-104500000D01*
X105131220Y-104505054D02*
X105126166Y-104500000D01*
X169137395Y-104800000D02*
X167237395Y-106700000D01*
X178914999Y-108999999D02*
X178927499Y-108987499D01*
X179499999Y-110665001D02*
X178914999Y-110080001D01*
X186980000Y-104460000D02*
X180774999Y-110665001D01*
X178927499Y-108987499D02*
X174740000Y-104800000D01*
X187660000Y-104460000D02*
X186980000Y-104460000D01*
X178914999Y-110080001D02*
X178914999Y-108999999D01*
X180774999Y-110665001D02*
X180605001Y-110665001D01*
X174740000Y-104800000D02*
X169137395Y-104800000D01*
X180592501Y-110652501D02*
X180580001Y-110665001D01*
X180605001Y-110665001D02*
X180592501Y-110652501D01*
X180580001Y-110665001D02*
X179499999Y-110665001D01*
X128918338Y-103787347D02*
X128352653Y-103787347D01*
X163527347Y-103787347D02*
X128918338Y-103787347D01*
X165140000Y-105400000D02*
X163527347Y-103787347D01*
X97840000Y-104600000D02*
X98390011Y-104049989D01*
X98390011Y-104049989D02*
X105312566Y-104049989D01*
X124913329Y-104548010D02*
X125313328Y-104948009D01*
X124415308Y-104049989D02*
X124913329Y-104548010D01*
X109617434Y-104049989D02*
X124415308Y-104049989D01*
X109612380Y-104055043D02*
X109617434Y-104049989D01*
X105317620Y-104055043D02*
X109612380Y-104055043D01*
X105312566Y-104049989D02*
X105317620Y-104055043D01*
X167805685Y-105400000D02*
X167240000Y-105400000D01*
X168950995Y-104349989D02*
X167900984Y-105400000D01*
X187119999Y-102460001D02*
X186379999Y-102460001D01*
X167900984Y-105400000D02*
X167805685Y-105400000D01*
X186379999Y-102460001D02*
X180425001Y-108414999D01*
X187660000Y-101920000D02*
X187119999Y-102460001D01*
X180425001Y-108414999D02*
X179654999Y-108414999D01*
X179654999Y-108414999D02*
X175589989Y-104349989D01*
X175589989Y-104349989D02*
X168950995Y-104349989D01*
X201250000Y-128540000D02*
X201140000Y-128650000D01*
X192120000Y-126111370D02*
X194658630Y-128650000D01*
X192120000Y-124980000D02*
X192120000Y-126111370D01*
X194658630Y-128650000D02*
X200340000Y-128650000D01*
X200340000Y-128650000D02*
X201140000Y-128650000D01*
X204740000Y-128540000D02*
X201250000Y-128540000D01*
X201740000Y-126000000D02*
X201140000Y-126600000D01*
X204740000Y-126000000D02*
X201740000Y-126000000D01*
X189580000Y-126111370D02*
X193618620Y-130149990D01*
X189580000Y-124980000D02*
X189580000Y-126111370D01*
X193618620Y-130149990D02*
X204869012Y-130149990D01*
X204869012Y-130149990D02*
X206440000Y-128579002D01*
X206440000Y-128579002D02*
X206440000Y-124600000D01*
X206440000Y-124600000D02*
X205840000Y-124000000D01*
X205840000Y-124000000D02*
X203740000Y-124000000D01*
X203740000Y-124000000D02*
X201140000Y-126600000D01*
X93400000Y-95500000D02*
X96974315Y-95500000D01*
X96974315Y-95500000D02*
X97540000Y-95500000D01*
X91940000Y-94040000D02*
X93400000Y-95500000D01*
X103008223Y-100472824D02*
X105690420Y-103155021D01*
X103008223Y-99459814D02*
X103008223Y-100472824D01*
X127000000Y-109440000D02*
X127000000Y-110490000D01*
X125221679Y-103149967D02*
X127727630Y-105655918D01*
X109244634Y-103149967D02*
X125221679Y-103149967D01*
X105690420Y-103155021D02*
X109239580Y-103155021D01*
X127727630Y-108712370D02*
X127000000Y-109440000D01*
X109239580Y-103155021D02*
X109244634Y-103149967D01*
X127727630Y-105655918D02*
X127727630Y-108712370D01*
X94890011Y-94450011D02*
X97690011Y-94450011D01*
X98940001Y-95700001D02*
X99340000Y-96100000D01*
X97690011Y-94450011D02*
X98940001Y-95700001D01*
X91940000Y-91500000D02*
X94890011Y-94450011D01*
X125874999Y-109429999D02*
X126640000Y-108664998D01*
X126924998Y-112600000D02*
X125874999Y-111550001D01*
X126640000Y-108664998D02*
X126640000Y-105204699D01*
X126640000Y-105204699D02*
X125035279Y-103599978D01*
X125035279Y-103599978D02*
X109431034Y-103599978D01*
X109425980Y-103605032D02*
X105504020Y-103605032D01*
X105504020Y-103605032D02*
X102240000Y-100341012D01*
X109431034Y-103599978D02*
X109425980Y-103605032D01*
X102240000Y-100341012D02*
X102240000Y-100100000D01*
X125874999Y-111550001D02*
X125874999Y-109429999D01*
X129970000Y-112600000D02*
X126924998Y-112600000D01*
X132080000Y-110490000D02*
X129970000Y-112600000D01*
X100540000Y-94000000D02*
X101140000Y-94600000D01*
X96980000Y-94000000D02*
X100540000Y-94000000D01*
X91940000Y-88960000D02*
X96980000Y-94000000D01*
X125539956Y-102699956D02*
X128177641Y-105337641D01*
X103740000Y-100568190D02*
X105876820Y-102705010D01*
X128740001Y-109690001D02*
X129540000Y-110490000D01*
X128177641Y-109127641D02*
X128740001Y-109690001D01*
X109058234Y-102699956D02*
X125539956Y-102699956D01*
X105876820Y-102705010D02*
X109053180Y-102705010D01*
X103740000Y-98700000D02*
X103740000Y-100568190D01*
X128177641Y-105337641D02*
X128177641Y-109127641D01*
X109053180Y-102705010D02*
X109058234Y-102699956D01*
X92789999Y-87269999D02*
X91940000Y-86420000D01*
X95848220Y-90328220D02*
X92789999Y-87269999D01*
X107791780Y-90328220D02*
X95848220Y-90328220D01*
X109855000Y-88265000D02*
X107791780Y-90328220D01*
X93142081Y-83880000D02*
X91940000Y-83880000D01*
X95920000Y-83880000D02*
X93142081Y-83880000D01*
X98531799Y-87706663D02*
X98540000Y-87698462D01*
X105701789Y-89878211D02*
X98918211Y-89878211D01*
X98540000Y-86500000D02*
X95920000Y-83880000D01*
X107315000Y-88265000D02*
X105701789Y-89878211D01*
X98918211Y-89878211D02*
X98540000Y-89500000D01*
X98540000Y-89500000D02*
X98540000Y-88831538D01*
X98540000Y-87698462D02*
X98540000Y-86500000D01*
X98540000Y-88831538D02*
X98531799Y-88823337D01*
X98531799Y-88823337D02*
X98531799Y-87706663D01*
X93142081Y-81340000D02*
X91940000Y-81340000D01*
X100858201Y-87706663D02*
X94491538Y-81340000D01*
X100858201Y-88823337D02*
X100858201Y-87706663D01*
X101463065Y-89428201D02*
X100858201Y-88823337D01*
X103611799Y-89428201D02*
X101463065Y-89428201D01*
X94491538Y-81340000D02*
X93142081Y-81340000D01*
X104775000Y-88265000D02*
X103611799Y-89428201D01*
X92770000Y-78800000D02*
X91940000Y-78800000D01*
X102235000Y-88265000D02*
X92770000Y-78800000D01*
X114840000Y-96600000D02*
X108490000Y-96600000D01*
X187040000Y-123575000D02*
X187040000Y-124980000D01*
X185965000Y-122500000D02*
X187040000Y-123575000D01*
X187040000Y-124980000D02*
X187320000Y-124700000D01*
X166840001Y-109690001D02*
X167640000Y-110490000D01*
X173664749Y-88415000D02*
X167954750Y-94124999D01*
X167099999Y-94124999D02*
X166514999Y-94709999D01*
X174625000Y-88415000D02*
X173664749Y-88415000D01*
X166512395Y-109362395D02*
X166840001Y-109690001D01*
X166512395Y-104416476D02*
X166512395Y-109362395D01*
X167954750Y-94124999D02*
X167099999Y-94124999D01*
X166514999Y-94709999D02*
X166514999Y-104413872D01*
X97155000Y-88265000D02*
X94134999Y-85244999D01*
X91375999Y-85244999D02*
X90739996Y-85881002D01*
X90739996Y-104974986D02*
X90965010Y-105200000D01*
X90739996Y-85881002D02*
X90739996Y-104974986D01*
X94134999Y-85244999D02*
X91375999Y-85244999D01*
X155740000Y-122990000D02*
X155740000Y-130513190D01*
X154090011Y-121340011D02*
X155740000Y-122990000D01*
X90599365Y-109570329D02*
X90599365Y-109004644D01*
X152153190Y-134100000D02*
X92700998Y-134100000D01*
X90599365Y-131998367D02*
X90599365Y-109570329D01*
X92700998Y-134100000D02*
X90599365Y-131998367D01*
X155740000Y-130513190D02*
X152153190Y-134100000D01*
X146090001Y-117766409D02*
X146090001Y-117749999D01*
X144654999Y-119201411D02*
X146090001Y-117766409D01*
X144654999Y-120809999D02*
X144654999Y-119201411D01*
X154090011Y-119986399D02*
X152026400Y-122050010D01*
X154090011Y-116749989D02*
X154090011Y-119986399D01*
X145895010Y-122050010D02*
X144654999Y-120809999D01*
X152026400Y-122050010D02*
X145895010Y-122050010D01*
X146090001Y-117749999D02*
X146840000Y-117000000D01*
X154090011Y-116749989D02*
X154090011Y-121340011D01*
X167640000Y-110490000D02*
X164604999Y-113525001D01*
X164604999Y-113525001D02*
X156714999Y-113525001D01*
X154485547Y-112925001D02*
X154090011Y-113320537D01*
X154090011Y-113320537D02*
X154090011Y-116749989D01*
X156714999Y-113525001D02*
X156114999Y-112925001D01*
X156114999Y-112925001D02*
X154485547Y-112925001D01*
X146220000Y-119980000D02*
X145780000Y-119980000D01*
X154940000Y-111820000D02*
X153240000Y-113520000D01*
X154940000Y-110490000D02*
X154940000Y-111820000D01*
X153240000Y-113520000D02*
X153240000Y-120200000D01*
X153240000Y-120200000D02*
X151840000Y-121600000D01*
X151840000Y-121600000D02*
X147840000Y-121600000D01*
X147840000Y-121600000D02*
X146220000Y-119980000D01*
X144017347Y-116777347D02*
X141040000Y-113800000D01*
X144017347Y-118177347D02*
X144017347Y-116777347D01*
X152400000Y-110490000D02*
X152400000Y-111460000D01*
X152400000Y-111460000D02*
X153337347Y-112397347D01*
X150440000Y-114000000D02*
X150240000Y-114200000D01*
X150440000Y-112400000D02*
X150440000Y-114000000D01*
X178360000Y-125080000D02*
X174029989Y-120749989D01*
X155540023Y-114300023D02*
X155439999Y-114199999D01*
X155439999Y-114199999D02*
X155040000Y-113800000D01*
X159189989Y-120749989D02*
X155540023Y-117100023D01*
X155540023Y-117100023D02*
X155540023Y-114300023D01*
X174029989Y-120749989D02*
X159189989Y-120749989D01*
X152400000Y-93840000D02*
X154240000Y-92000000D01*
X152400000Y-95250000D02*
X152400000Y-93840000D01*
X152114999Y-91148001D02*
X152114999Y-90451999D01*
X152400000Y-91433002D02*
X152114999Y-91148001D01*
X152114999Y-90451999D02*
X152314998Y-90252000D01*
X152314998Y-82484230D02*
X150495000Y-80664232D01*
X152400000Y-95250000D02*
X152400000Y-91433002D01*
X150495000Y-80664232D02*
X150495000Y-80645000D01*
X152314998Y-90252000D02*
X152314998Y-82484230D01*
X149860000Y-110490000D02*
X152440000Y-113070000D01*
X152440000Y-113070000D02*
X152440000Y-113100000D01*
X147040000Y-113310000D02*
X147040000Y-114200000D01*
X149860000Y-110490000D02*
X147040000Y-113310000D01*
X158540000Y-121200000D02*
X154815021Y-117475021D01*
X154815021Y-117475021D02*
X154815021Y-115465685D01*
X154815021Y-115465685D02*
X154815021Y-114900000D01*
X171940000Y-121200000D02*
X158540000Y-121200000D01*
X175820000Y-125080000D02*
X171940000Y-121200000D01*
X144780000Y-118440000D02*
X143240000Y-119980000D01*
X144780000Y-110490000D02*
X144780000Y-118440000D01*
X141240000Y-117980000D02*
X141240000Y-117600000D01*
X143240000Y-119980000D02*
X141240000Y-117980000D01*
X138160000Y-119920330D02*
X138160000Y-119980000D01*
X138285001Y-119795329D02*
X138160000Y-119920330D01*
X138285001Y-109949999D02*
X138285001Y-119795329D01*
X138870001Y-109364999D02*
X138285001Y-109949999D01*
X142240000Y-110490000D02*
X141114999Y-109364999D01*
X141114999Y-109364999D02*
X138870001Y-109364999D01*
X139700000Y-118980000D02*
X140700000Y-119980000D01*
X139700000Y-110490000D02*
X139700000Y-118980000D01*
X135300000Y-119660000D02*
X135620000Y-119980000D01*
X137160000Y-110490000D02*
X135300000Y-112350000D01*
X135300000Y-112350000D02*
X135300000Y-119660000D01*
X137160000Y-115080000D02*
X136840000Y-115400000D01*
X137160000Y-110490000D02*
X137160000Y-115080000D01*
X177165000Y-89375251D02*
X173940251Y-92600000D01*
X177165000Y-88415000D02*
X177165000Y-89375251D01*
X170290000Y-92600000D02*
X167640000Y-95250000D01*
X173940251Y-92600000D02*
X170290000Y-92600000D01*
X180040000Y-94300000D02*
X180010000Y-94270000D01*
X176639980Y-97700020D02*
X180040000Y-94300000D01*
X170090020Y-97700020D02*
X176639980Y-97700020D01*
X167640000Y-95250000D02*
X170090020Y-97700020D01*
X170979999Y-94450001D02*
X170180000Y-95250000D01*
X178240000Y-88936661D02*
X173051662Y-94124999D01*
X178065001Y-87679999D02*
X178065001Y-87829079D01*
X177480001Y-87094999D02*
X178065001Y-87679999D01*
X171305001Y-94124999D02*
X170979999Y-94450001D01*
X178240000Y-88004078D02*
X178240000Y-88936661D01*
X174945002Y-87100000D02*
X176394998Y-87100000D01*
X176394998Y-87100000D02*
X176399999Y-87094999D01*
X172085000Y-88415000D02*
X173400000Y-87100000D01*
X174940001Y-87094999D02*
X174945002Y-87100000D01*
X173051662Y-94124999D02*
X171305001Y-94124999D01*
X173400000Y-87100000D02*
X173854998Y-87100000D01*
X176399999Y-87094999D02*
X177480001Y-87094999D01*
X178065001Y-87829079D02*
X178240000Y-88004078D01*
X173854998Y-87100000D02*
X173859999Y-87094999D01*
X173859999Y-87094999D02*
X174940001Y-87094999D01*
X180040000Y-96840000D02*
X180010000Y-96810000D01*
X175826400Y-97250011D02*
X177290011Y-95786400D01*
X177290011Y-94864985D02*
X179554998Y-92600000D01*
X181171370Y-96840000D02*
X180040000Y-96840000D01*
X179554998Y-92600000D02*
X180525002Y-92600000D01*
X180525002Y-92600000D02*
X182040000Y-94114998D01*
X181200000Y-96840000D02*
X181171370Y-96840000D01*
X172180011Y-97250011D02*
X175826400Y-97250011D01*
X182040000Y-96000000D02*
X181200000Y-96840000D01*
X182040000Y-94114998D02*
X182040000Y-96000000D01*
X170180000Y-95250000D02*
X172180011Y-97250011D01*
X177290011Y-95786400D02*
X177290011Y-94864985D01*
X180040000Y-99380000D02*
X180010000Y-99350000D01*
X172870000Y-95250000D02*
X172720000Y-95250000D01*
X179705000Y-88415000D02*
X172870000Y-95250000D01*
X180839999Y-98580001D02*
X180040000Y-99380000D01*
X182490011Y-93928598D02*
X182490011Y-96929989D01*
X180711402Y-92149989D02*
X182490011Y-93928598D01*
X179290011Y-92149989D02*
X180711402Y-92149989D01*
X175640000Y-96800000D02*
X176840000Y-95600000D01*
X182490011Y-96929989D02*
X180839999Y-98580001D01*
X172720000Y-95250000D02*
X174270000Y-96800000D01*
X174270000Y-96800000D02*
X175640000Y-96800000D01*
X176840000Y-95600000D02*
X176840000Y-94600000D01*
X176840000Y-94600000D02*
X179290011Y-92149989D01*
X180040000Y-101920000D02*
X180010000Y-101890000D01*
X175410000Y-95250000D02*
X175260000Y-95250000D01*
X182245000Y-88415000D02*
X175410000Y-95250000D01*
X175260000Y-95250000D02*
X178810022Y-91699978D01*
X182940022Y-93663611D02*
X182940022Y-99019978D01*
X178810022Y-91699978D02*
X180976389Y-91699978D01*
X180976389Y-91699978D02*
X182940022Y-93663611D01*
X180839999Y-101120001D02*
X180040000Y-101920000D01*
X182940022Y-99019978D02*
X180839999Y-101120001D01*
X107840000Y-94700000D02*
X107540000Y-95000000D01*
X120349002Y-94700000D02*
X107840000Y-94700000D01*
X126626148Y-100977146D02*
X120349002Y-94700000D01*
X165240000Y-104400000D02*
X161817146Y-100977146D01*
X161817146Y-100977146D02*
X126626148Y-100977146D01*
X187660000Y-99380000D02*
X186240000Y-100800000D01*
X179025001Y-105585001D02*
X177339978Y-103899978D01*
X182241090Y-105585001D02*
X179025001Y-105585001D01*
X177339978Y-103899978D02*
X168205707Y-103899978D01*
X168205707Y-103899978D02*
X167805685Y-104300000D01*
X167805685Y-104300000D02*
X167240000Y-104300000D01*
X186240000Y-101586091D02*
X182241090Y-105585001D01*
X186240000Y-100800000D02*
X186240000Y-101586091D01*
X101040000Y-92000000D02*
X99640000Y-92000000D01*
X153214999Y-126474999D02*
X154440000Y-127700000D01*
X133080000Y-127600000D02*
X134205001Y-126474999D01*
X134205001Y-126474999D02*
X153214999Y-126474999D01*
X192340000Y-130500000D02*
X194660000Y-132820000D01*
X190040000Y-130500000D02*
X192340000Y-130500000D01*
X189065001Y-131474999D02*
X190040000Y-130500000D01*
X189039999Y-131474999D02*
X189065001Y-131474999D01*
X188165001Y-134000000D02*
X188165001Y-132349997D01*
X158239999Y-128399999D02*
X181414997Y-128399999D01*
X157840000Y-128000000D02*
X158239999Y-128399999D01*
X181414997Y-128399999D02*
X184440000Y-131425002D01*
X188165001Y-132349997D02*
X189039999Y-131474999D01*
X184440000Y-131425002D02*
X184440000Y-134100000D01*
X184440000Y-134100000D02*
X188065001Y-134100000D01*
X188065001Y-134100000D02*
X188165001Y-134000000D01*
X130540000Y-126550000D02*
X131389999Y-125700001D01*
X154314991Y-126099999D02*
X154714990Y-126499998D01*
X153914993Y-125700001D02*
X154314991Y-126099999D01*
X130540000Y-127600000D02*
X130540000Y-126550000D01*
X131389999Y-125700001D02*
X153914993Y-125700001D01*
X186370000Y-132220000D02*
X181649999Y-127499999D01*
X187420000Y-132220000D02*
X186370000Y-132220000D01*
X181649999Y-127499999D02*
X158639995Y-127499999D01*
X158639995Y-127499999D02*
X158439995Y-127299999D01*
X158439995Y-127299999D02*
X158039996Y-126900000D01*
X148855199Y-76604922D02*
X160881333Y-76604922D01*
X163510000Y-77000000D02*
X166326001Y-79816001D01*
X161276411Y-77000000D02*
X163510000Y-77000000D01*
X130175000Y-80645000D02*
X133820000Y-77000000D01*
X148460122Y-77000000D02*
X148855199Y-76604922D01*
X133820000Y-77000000D02*
X148460122Y-77000000D01*
X160881333Y-76604922D02*
X161276411Y-77000000D01*
X166326001Y-79816001D02*
X167005000Y-80495000D01*
X156176322Y-81799912D02*
X162751355Y-81799912D01*
X162751355Y-81799912D02*
X162851443Y-81900000D01*
X168189990Y-81949990D02*
X168189990Y-81850010D01*
X135909989Y-77450011D02*
X148646521Y-77450011D01*
X162851443Y-81900000D02*
X168140000Y-81900000D01*
X168140000Y-81900000D02*
X168189990Y-81949990D01*
X168189990Y-81850010D02*
X169545000Y-80495000D01*
X154525067Y-79287938D02*
X154525067Y-80148657D01*
X152292063Y-77054933D02*
X154525067Y-79287938D01*
X149041599Y-77054933D02*
X152292063Y-77054933D01*
X148646521Y-77450011D02*
X149041599Y-77054933D01*
X132715000Y-80645000D02*
X135909989Y-77450011D01*
X154525067Y-80148657D02*
X156176322Y-81799912D01*
X171406001Y-81173999D02*
X172085000Y-80495000D01*
X148832921Y-77900022D02*
X149227999Y-77504944D01*
X155989922Y-82249923D02*
X162564955Y-82249923D01*
X135255000Y-80645000D02*
X137999978Y-77900022D01*
X154075056Y-79474338D02*
X154075056Y-80335057D01*
X154075056Y-80335057D02*
X155989922Y-82249923D01*
X162715032Y-82400000D02*
X170180000Y-82400000D01*
X137999978Y-77900022D02*
X148832921Y-77900022D01*
X152105663Y-77504944D02*
X154075056Y-79474338D01*
X149227999Y-77504944D02*
X152105663Y-77504944D01*
X170180000Y-82400000D02*
X171406001Y-81173999D01*
X162564955Y-82249923D02*
X162715032Y-82400000D01*
X162578621Y-82900000D02*
X172220000Y-82900000D01*
X137795000Y-80645000D02*
X140089967Y-78350033D01*
X140089967Y-78350033D02*
X149019322Y-78350033D01*
X149414399Y-77954955D02*
X151919263Y-77954955D01*
X151919263Y-77954955D02*
X153625045Y-79660738D01*
X153625045Y-80585045D02*
X155739934Y-82699934D01*
X155739934Y-82699934D02*
X162378555Y-82699934D01*
X162378555Y-82699934D02*
X162578621Y-82900000D01*
X153625045Y-79660738D02*
X153625045Y-80585045D01*
X172220000Y-82900000D02*
X173946001Y-81173999D01*
X173946001Y-81173999D02*
X174625000Y-80495000D01*
X149019322Y-78350033D02*
X149414399Y-77954955D01*
X149205721Y-78800044D02*
X149600799Y-78404966D01*
X162392221Y-83350011D02*
X174309989Y-83350011D01*
X174309989Y-83350011D02*
X176486001Y-81173999D01*
X176486001Y-81173999D02*
X177165000Y-80495000D01*
X162192155Y-83149945D02*
X162392221Y-83350011D01*
X155553534Y-83149945D02*
X162192155Y-83149945D01*
X153175034Y-80771445D02*
X155553534Y-83149945D01*
X153175034Y-79847138D02*
X153175034Y-80771445D01*
X151732863Y-78404966D02*
X153175034Y-79847138D01*
X149600799Y-78404966D02*
X151732863Y-78404966D01*
X142179956Y-78800044D02*
X149205721Y-78800044D01*
X140335000Y-80645000D02*
X142179956Y-78800044D01*
X151546464Y-78854978D02*
X152725023Y-80033538D01*
X162005755Y-83599956D02*
X162205821Y-83800022D01*
X179026001Y-81173999D02*
X179705000Y-80495000D01*
X176399978Y-83800022D02*
X179026001Y-81173999D01*
X162205821Y-83800022D02*
X176399978Y-83800022D01*
X155367134Y-83599956D02*
X162005755Y-83599956D01*
X152725023Y-80957845D02*
X155367134Y-83599956D01*
X152725023Y-80033538D02*
X152725023Y-80957845D01*
X149787200Y-78854977D02*
X151546464Y-78854978D01*
X149392121Y-79250055D02*
X149787200Y-78854977D01*
X144269945Y-79250055D02*
X149392121Y-79250055D01*
X142875000Y-80645000D02*
X144269945Y-79250055D01*
X149973600Y-79304988D02*
X151360063Y-79304988D01*
X178539978Y-84200022D02*
X181566001Y-81173999D01*
X176636389Y-84200022D02*
X178539978Y-84200022D01*
X162019421Y-84250033D02*
X176586378Y-84250033D01*
X161819355Y-84049967D02*
X162019421Y-84250033D01*
X145415000Y-80645000D02*
X146359934Y-79700066D01*
X146359934Y-79700066D02*
X149578521Y-79700066D01*
X149578521Y-79700066D02*
X149973600Y-79304988D01*
X176586378Y-84250033D02*
X176636389Y-84200022D01*
X155154082Y-84049967D02*
X161819355Y-84049967D01*
X151360063Y-79304988D02*
X152275012Y-80219938D01*
X181566001Y-81173999D02*
X182245000Y-80495000D01*
X152275012Y-81170897D02*
X155154082Y-84049967D01*
X152275012Y-80219938D02*
X152275012Y-81170897D01*
X147955000Y-80645000D02*
X149269998Y-80645000D01*
X184106001Y-81173999D02*
X184785000Y-80495000D01*
X151173662Y-79754999D02*
X151825001Y-80406338D01*
X151825001Y-81357823D02*
X154967156Y-84499978D01*
X161833021Y-84700044D02*
X176772778Y-84700044D01*
X180629967Y-84650033D02*
X184106001Y-81173999D01*
X150160000Y-79754999D02*
X151173662Y-79754999D01*
X176772778Y-84700044D02*
X176822789Y-84650033D01*
X149269998Y-80645000D02*
X150160000Y-79754999D01*
X176822789Y-84650033D02*
X180629967Y-84650033D01*
X161632955Y-84499978D02*
X161833021Y-84700044D01*
X154967156Y-84499978D02*
X161632955Y-84499978D01*
X151825001Y-80406338D02*
X151825001Y-81357823D01*
X172580001Y-132000001D02*
X173380000Y-132800000D01*
X171180000Y-130600000D02*
X172580001Y-132000001D01*
X162880000Y-130600000D02*
X171180000Y-130600000D01*
X160680000Y-132800000D02*
X162880000Y-130600000D01*
X170840000Y-132800000D02*
X168740000Y-134900000D01*
X157340001Y-125979999D02*
X158140000Y-125180000D01*
X168740000Y-134900000D02*
X158574998Y-134900000D01*
X158574998Y-134900000D02*
X156190011Y-132515013D01*
X156190011Y-127129989D02*
X157340001Y-125979999D01*
X156190011Y-132515013D02*
X156190011Y-127129989D01*
X167500001Y-133599999D02*
X168300000Y-132800000D01*
X167174999Y-133925001D02*
X167500001Y-133599999D01*
X159265001Y-133925001D02*
X167174999Y-133925001D01*
X158140000Y-132800000D02*
X159265001Y-133925001D01*
X204740000Y-80680000D02*
X204840000Y-80580000D01*
X204740000Y-80980000D02*
X204740000Y-80680000D01*
X194428628Y-84774962D02*
X185702617Y-84774962D01*
X185702617Y-84774962D02*
X185327526Y-85150053D01*
X185327526Y-85150053D02*
X165644945Y-85150053D01*
X163114999Y-89615001D02*
X158279999Y-94450001D01*
X165644945Y-85150053D02*
X163114999Y-87679999D01*
X200653599Y-78549991D02*
X194428628Y-84774962D01*
X163114999Y-87679999D02*
X163114999Y-89615001D01*
X202809991Y-78549991D02*
X200653599Y-78549991D01*
X158279999Y-94450001D02*
X157480000Y-95250000D01*
X204840000Y-80580000D02*
X202809991Y-78549991D01*
X189136072Y-85600064D02*
X194239936Y-85600064D01*
X188760980Y-85224972D02*
X189136072Y-85600064D01*
X194239936Y-85600064D02*
X200840000Y-79000000D01*
X165654999Y-89615001D02*
X165654999Y-87679999D01*
X160020000Y-95250000D02*
X165654999Y-89615001D01*
X165654999Y-87679999D02*
X167734934Y-85600064D01*
X167734934Y-85600064D02*
X185513926Y-85600064D01*
X185513926Y-85600064D02*
X185889025Y-85224969D01*
X185889025Y-85224969D02*
X188760980Y-85224972D01*
X203990001Y-82270001D02*
X204840000Y-83120000D01*
X203664999Y-81944999D02*
X203990001Y-82270001D01*
X203664999Y-80224999D02*
X203664999Y-81944999D01*
X202440000Y-79000000D02*
X203664999Y-80224999D01*
X200840000Y-79000000D02*
X202440000Y-79000000D01*
X193281001Y-103463999D02*
X191820000Y-104925000D01*
X193334999Y-103463999D02*
X193281001Y-103463999D01*
X193334999Y-102903999D02*
X193334999Y-103463999D01*
X194238998Y-102000000D02*
X193334999Y-102903999D01*
X194240000Y-102000000D02*
X194238998Y-102000000D01*
X194440000Y-101800000D02*
X194240000Y-102000000D01*
X197040000Y-101800000D02*
X194440000Y-101800000D01*
X197240000Y-102000000D02*
X197040000Y-101800000D01*
X197240000Y-112800000D02*
X197240000Y-102000000D01*
X189840000Y-120200000D02*
X197240000Y-112800000D01*
X172660000Y-127000000D02*
X181365002Y-127000000D01*
X181365002Y-127000000D02*
X182940000Y-125425002D01*
X170840000Y-125180000D02*
X172660000Y-127000000D01*
X182940000Y-125425002D02*
X182940000Y-121400000D01*
X182940000Y-121400000D02*
X184140000Y-120200000D01*
X184140000Y-120200000D02*
X189840000Y-120200000D01*
X190494999Y-109020001D02*
X190494999Y-118145001D01*
X191820000Y-107695000D02*
X190494999Y-109020001D01*
X174505001Y-126305001D02*
X174179999Y-125979999D01*
X174179999Y-125979999D02*
X173380000Y-125180000D01*
X179134999Y-126305001D02*
X174505001Y-126305001D01*
X179585001Y-125854999D02*
X179134999Y-126305001D01*
X179585001Y-124118589D02*
X179585001Y-125854999D01*
X183953599Y-119749991D02*
X179585001Y-124118589D01*
X188890010Y-119749990D02*
X183953599Y-119749991D01*
X190494999Y-118145001D02*
X188890010Y-119749990D01*
X102220000Y-80680000D02*
X102220000Y-83580000D01*
X102220000Y-83580000D02*
X104840000Y-86200000D01*
X127640000Y-101800000D02*
X149240000Y-101800000D01*
X149240000Y-95870000D02*
X149860000Y-95250000D01*
X149240000Y-100252146D02*
X149240000Y-95870000D01*
X149840000Y-95230000D02*
X149860000Y-95250000D01*
X149840000Y-92000000D02*
X149840000Y-95230000D01*
X183760001Y-95520001D02*
X184840000Y-96600000D01*
X184560000Y-88220000D02*
X183760001Y-89019999D01*
X183760001Y-89019999D02*
X183760001Y-95520001D01*
X193290001Y-82149999D02*
X194040000Y-81400000D01*
X191414946Y-84025054D02*
X193290001Y-82149999D01*
X185239999Y-84025054D02*
X191414946Y-84025054D01*
X184840000Y-84425053D02*
X185239999Y-84025054D01*
M02*
